<?xml version="1.0" encoding="UTF-8"?> <svg xmlns="http://www.w3.org/2000/svg" width="340" height="118" viewBox="0 0 340 118" fill="none"><path d="M155.453 50.2378C155.261 50.8933 155.027 51.5343 154.753 52.1563C154.482 52.767 154.096 53.3131 153.619 53.7606C153.06 54.2636 152.408 54.6374 151.705 54.8582C149.702 55.3898 147.606 55.3898 145.603 54.8582C144.9 54.6369 144.248 54.263 143.689 53.7606C143.211 53.3153 142.825 52.7687 142.557 52.1563C142.282 51.5349 142.048 50.8939 141.857 50.2378L136.41 32.1912C136.325 31.8717 136.216 31.5592 136.086 31.2568C135.967 30.9899 135.841 30.8415 135.694 30.8415C135.46 30.8415 135.332 30.9998 135.302 31.3185C135.28 31.5652 135.271 31.8127 135.276 32.0602L135.631 54.8039H124.196V23.5685C124.112 22.2038 124.507 20.8542 125.304 19.7787C125.995 18.9247 126.868 18.257 127.85 17.8307C128.765 17.4297 129.734 17.186 130.721 17.1088C131.682 17.0371 132.394 17 132.865 17C133.665 17.0049 134.464 17.0594 135.258 17.1632C136.139 17.2777 136.998 17.5379 137.803 17.9345C138.685 18.3794 139.474 19.0064 140.123 19.7787C140.924 20.7793 141.524 21.9427 141.885 23.1976L147.584 41.3531C147.627 41.4945 147.677 41.6334 147.736 41.7685C147.808 41.9601 147.892 42.1467 147.988 42.3271C148.077 42.5083 148.186 42.6783 148.312 42.8339C148.334 42.88 148.365 42.9209 148.403 42.9542C148.44 42.9875 148.483 43.0129 148.53 43.0285C148.577 43.044 148.626 43.0497 148.674 43.0451C148.723 43.0407 148.77 43.026 148.814 43.002C148.881 42.9646 148.936 42.9057 148.97 42.8339C149.095 42.6775 149.205 42.5075 149.297 42.3271C149.392 42.1473 149.476 41.9606 149.546 41.7685L149.701 41.3531L155.395 23.1976C155.729 21.9356 156.324 20.7678 157.136 19.7787C157.799 19.0079 158.598 18.3814 159.488 17.9345C160.295 17.5383 161.154 17.278 162.036 17.1632C162.847 17.057 163.663 17.0025 164.48 17C166.085 16.9347 167.689 17.1708 169.217 17.6972C170.195 18.0478 171.084 18.6323 171.815 19.4054C172.364 20.0045 172.748 20.752 172.923 21.5661C173.065 22.2235 173.143 22.8944 173.157 23.5685V54.8064H161.654L162.046 32.0627C162.076 31.7246 162.023 31.3837 161.892 31.074C161.794 30.9132 161.693 30.8267 161.591 30.8267C161.488 30.8267 161.39 30.9206 161.29 31.116C161.139 31.4549 161.007 31.8032 160.895 32.159L155.453 50.2378Z" fill="white"></path><path d="M201.135 26.5267C202.54 26.4798 203.938 26.7442 205.24 27.3028C206.161 27.7004 207.006 28.2708 207.735 28.9863C208.262 29.5417 208.704 30.1805 209.044 30.8802C209.37 31.5439 209.633 32.2403 209.829 32.9591C210.011 33.6373 210.13 34.3329 210.183 35.0359C210.235 35.7279 210.258 36.3608 210.258 36.9295V48.7956C210.254 49.5741 210.187 50.3508 210.057 51.1171C209.905 51.9595 209.519 52.7348 208.946 53.342C208.38 54.0128 207.619 54.4641 206.783 54.6249C205.999 54.764 205.205 54.8345 204.41 54.8353H188.69C187.837 54.8345 186.986 54.764 186.144 54.6249C185.252 54.4688 184.429 54.0201 183.791 53.342C183.287 52.8404 182.877 52.2422 182.583 51.5794C182.28 50.9083 182.06 50.1988 181.929 49.4682C181.794 48.7563 181.709 48.035 181.675 47.3099C181.642 46.5955 181.624 45.9553 181.624 45.3865C181.624 44.8181 181.649 44.1506 181.701 43.4905C181.749 42.8322 181.85 42.1797 182.004 41.5401C182.151 40.9048 182.379 40.2938 182.681 39.7229C182.998 39.1397 183.428 38.6343 183.943 38.2397C184.621 37.6609 185.435 37.29 186.298 37.1669C187.092 37.0654 187.892 37.0133 188.692 37.0111H200.386V36.5933C200.384 36.2983 200.359 36.0038 200.312 35.7132C200.25 35.3503 200.102 35.01 199.882 34.7242C199.72 34.4748 199.513 34.2614 199.273 34.0968C199.032 33.9323 198.764 33.8196 198.482 33.765C197.949 33.661 197.409 33.6073 196.867 33.6045H183.455V26.5415L201.135 26.5267ZM193.371 43.7205C193.143 43.7287 192.916 43.7568 192.692 43.8046C192.4 43.8635 192.128 44.0073 191.908 44.2199C191.745 44.3872 191.63 44.6009 191.579 44.8353C191.527 45.0719 191.502 45.3142 191.504 45.5571C191.505 45.773 191.53 45.988 191.579 46.1976C191.636 46.4211 191.75 46.6238 191.908 46.7835C192.081 46.9663 192.298 47.0954 192.536 47.1565C192.775 47.2261 193.021 47.2627 193.269 47.2654H198.403C198.666 47.2627 198.928 47.2362 199.187 47.1863C199.425 47.147 199.65 47.0457 199.843 46.8921C200.057 46.7434 200.211 46.515 200.274 46.2519C200.323 46.0079 200.348 45.7596 200.349 45.5102V43.7451L193.371 43.7205Z" fill="white"></path><path d="M218.324 38.4388C218.324 37.7614 218.352 37.0224 218.399 36.2138C218.45 35.3837 218.582 34.5615 218.79 33.7591C219.015 32.9099 219.336 32.0931 219.747 31.3266C220.198 30.5076 220.788 29.7841 221.488 29.1931C222.215 28.5648 223.032 28.0641 223.908 27.7099C224.766 27.3597 225.652 27.091 226.555 26.9064C227.403 26.7375 228.26 26.6309 229.122 26.5875C229.945 26.5554 230.69 26.5331 231.364 26.5331H237.927V33.9024H234.498C233.574 33.8972 232.652 34.0143 231.754 34.2512C230.846 34.5213 230.053 35.116 229.511 35.9347C228.95 36.7277 228.577 37.6531 228.426 38.6317C228.281 39.5219 228.203 40.423 228.193 41.3263V54.8365H218.324V38.4388Z" fill="white"></path><path d="M244.481 54.8299V17.4414H254.365V54.8299H244.481ZM264.596 54.8299L257.335 44.6943C256.714 43.9064 256.259 42.9879 255.998 41.9995C255.865 41.3942 255.786 40.7766 255.765 40.1555C255.728 39.2942 255.894 38.4371 256.248 37.661C256.591 36.9896 256.969 36.3385 257.38 35.7106L263.478 26.524H274.162L266.052 37.7944C265.835 38.103 265.664 38.4447 265.545 38.8082C265.398 39.1742 265.33 39.5712 265.348 39.9688C265.366 40.3667 265.468 40.7548 265.648 41.1046C265.84 41.5557 266.074 41.9847 266.348 42.3853L275.683 54.8275L264.596 54.8299Z" fill="white"></path><path d="M291.765 54.8326C290.758 54.8326 289.798 54.8144 288.89 54.7781C288.022 54.745 287.162 54.6056 286.325 54.3627C285.53 54.1354 284.78 53.7643 284.105 53.2651C283.368 52.6915 282.751 51.9656 282.288 51.1316C281.665 49.9189 281.29 48.582 281.181 47.206C280.991 45.135 280.906 43.0545 280.928 40.9739V37.2879C280.925 36.1898 280.983 35.0927 281.105 34.0022C281.211 33.0466 281.423 32.107 281.736 31.2037C282.032 30.361 282.495 29.5953 283.096 28.9591C283.738 28.2567 284.521 27.718 285.389 27.3845C286.376 26.9934 287.399 26.7149 288.444 26.5538C289.602 26.3734 290.772 26.267 291.944 26.2349C293.171 26.2028 294.422 26.1805 295.7 26.1805C298.42 26.1805 300.673 26.2703 302.454 26.45C304.007 26.5397 305.498 27.1181 306.738 28.1112C307.377 28.6486 307.9 29.3226 308.278 30.0889C308.659 30.8683 308.955 31.6922 309.159 32.5439C309.363 33.3921 309.494 34.2585 309.551 35.132C309.605 36.0048 309.627 36.8354 309.627 37.6266C309.621 38.5662 309.545 39.5041 309.393 40.43C309.238 41.3813 308.743 42.2325 308.008 42.8056C307.647 43.1565 307.201 43.3967 306.719 43.5004C306.279 43.5727 305.832 43.6082 305.386 43.6065H290.804C290.769 44.0202 290.796 44.437 290.878 44.8428C290.949 45.2204 291.082 45.582 291.272 45.9106C291.474 46.2555 291.751 46.5445 292.08 46.7541C292.409 46.9637 292.782 47.0881 293.163 47.1171C294.009 47.2063 294.86 47.2502 295.709 47.2481H308.65V54.8302L291.765 54.8326ZM298.119 36.9986C298.823 36.9986 299.266 36.8196 299.451 36.4621C299.617 36.1723 299.715 35.8424 299.732 35.5029C299.726 35.0987 299.601 34.7063 299.375 34.3805C298.994 33.9378 298.478 33.6538 297.915 33.5795C297.447 33.5012 296.976 33.4483 296.503 33.4213C295.964 33.3841 295.57 33.3669 295.295 33.3669C294.721 33.3669 294.128 33.3918 293.427 33.4461C292.883 33.469 292.349 33.6104 291.86 33.8614C291.626 33.9826 291.419 34.1556 291.253 34.369C291.087 34.5824 290.968 34.8308 290.902 35.0974C290.761 35.7179 290.728 36.3601 290.799 36.9937L298.119 36.9986Z" fill="white"></path><path d="M330.876 54.8265C330.37 54.8265 329.791 54.8265 329.132 54.8019C328.428 54.7782 327.726 54.7056 327.033 54.5844C326.263 54.4529 325.504 54.2654 324.761 54.0231C323.986 53.7745 323.257 53.3962 322.596 52.9034C321.511 52.115 320.641 51.037 320.075 49.7784C319.517 48.5919 319.224 47.2864 319.215 45.9615V33.7887H315.435V26.523H319.215V17.4478H329.097V26.523H336.71V33.7887H329.108V40.2484C329.108 41.2802 329.209 42.3093 329.413 43.3187C329.603 44.3192 330.093 45.2274 330.813 45.9071C331.417 46.5154 332.182 46.916 333.003 47.0566C333.713 47.1747 334.428 47.2375 335.146 47.2446H336.607V54.8265H330.876Z" fill="white"></path><path d="M158.483 97.9317C158.54 98.9365 158.322 99.937 157.856 100.814C157.548 101.34 157.183 101.825 156.768 102.26C155.691 103.148 154.351 103.601 152.988 103.538H136.306C134.723 103.514 133.152 103.251 131.639 102.757C130.09 102.304 128.656 101.492 127.438 100.382C126.465 99.4908 125.683 98.3888 125.147 97.1504C124.591 95.8847 124.167 94.5585 123.884 93.1951C123.6 91.8268 123.415 90.4375 123.331 89.0394C123.245 87.6351 123.208 86.32 123.208 85.0641C123.208 83.5676 123.256 82.0448 123.354 80.4956C123.455 78.9734 123.674 77.4629 124.01 75.9792C124.333 74.5574 124.843 73.191 125.525 71.9199C126.209 70.6618 127.137 69.571 128.246 68.7185C129.041 68.0835 129.926 67.5876 130.869 67.2501C131.74 66.9305 132.632 66.6824 133.539 66.5083C134.28 66.3596 135.03 66.2614 135.784 66.2142C136.437 66.1795 136.881 66.1599 137.116 66.1599H157.685V75.0249H142.243C141.059 74.9209 139.87 75.1529 138.798 75.6967C137.727 76.2406 136.811 77.077 136.145 78.12C135.547 79.1393 135.177 80.2901 135.065 81.4846C134.829 83.7207 134.829 85.9775 135.065 88.2136C135.19 89.4433 135.577 90.6269 136.197 91.6748C136.71 92.5944 137.488 93.3154 138.416 93.7316C139.287 94.0727 140.211 94.2403 141.14 94.2261H144.598C144.926 94.2244 145.254 94.198 145.578 94.1469C145.934 94.0924 146.262 93.9139 146.512 93.6402C146.776 93.3665 146.953 93.012 147.018 92.6264C147.083 92.2389 147.116 91.8459 147.116 91.4521V83.7663H158.507L158.483 97.9317Z" fill="white"></path><path d="M194.081 66.1418V87.6099C194.09 88.5225 194.176 89.4326 194.337 90.3293C194.517 91.3543 195.055 92.2699 195.845 92.8927C196.429 93.3599 197.097 93.6963 197.807 93.8816C199.373 94.3415 201.028 94.3415 202.594 93.8816C203.298 93.6944 203.958 93.3579 204.535 92.8927C204.951 92.5622 205.295 92.1406 205.544 91.6567C205.774 91.2111 205.953 90.7371 206.073 90.2453C206.186 89.7915 206.254 89.3267 206.276 88.8582C206.276 88.4133 206.3 87.9931 206.3 87.6099V66.1516H217.693V88.5839C217.693 89.5431 217.649 90.5073 217.567 91.4665C217.478 92.4429 217.301 93.4084 217.037 94.3488C216.762 95.3258 216.382 96.2665 215.905 97.1523C215.386 98.1 214.751 98.9703 214.015 99.7407C213.15 100.67 212.143 101.438 211.037 102.013C209.953 102.563 208.812 102.978 207.637 103.249C206.426 103.535 205.195 103.723 203.957 103.81C202.698 103.897 201.446 103.942 200.202 103.943C198.925 103.943 197.66 103.899 196.421 103.81C195.191 103.722 193.97 103.534 192.767 103.249C191.591 102.978 190.449 102.563 189.364 102.013C188.259 101.439 187.254 100.67 186.391 99.7407C185.653 98.973 185.017 98.1022 184.501 97.1523C184.02 96.2678 183.639 95.3269 183.364 94.3488C183.101 93.4084 182.923 92.4429 182.834 91.4665C182.753 90.5073 182.708 89.5431 182.708 88.5839V66.1516L194.081 66.1418Z" fill="white"></path><path d="M242.868 73.2987C242.873 72.3775 242.939 71.4581 243.068 70.5471C243.199 69.5778 243.606 68.674 244.235 67.9563C244.853 67.2096 245.677 66.6865 246.59 66.4608C247.361 66.2657 248.15 66.1587 248.942 66.1418H268.158C268.695 66.1418 269.325 66.1418 270.074 66.1936C270.842 66.2428 271.603 66.3822 272.343 66.609C273.145 66.8568 273.909 67.2265 274.614 67.7066C275.392 68.2507 276.058 68.9572 276.572 69.7833C277.353 71.0195 277.862 72.4252 278.06 73.8969C278.275 75.3635 278.384 76.8453 278.389 78.3296C278.389 78.7447 278.389 79.3333 278.362 80.06C278.34 80.8547 278.28 81.6474 278.183 82.4356C278.085 83.2663 277.951 84.1663 277.791 85.0537C277.639 85.8953 277.405 86.7181 277.092 87.5084C276.564 88.9826 275.601 90.2371 274.347 91.0858C273.191 91.7956 271.878 92.1643 270.543 92.1537H269.028V92.3687L279.099 103.516H265.374L258.59 93.7976C258.019 92.9734 257.474 92.1537 256.956 91.3377C256.452 90.5714 256.179 89.6613 256.172 88.7272V87.9462C256.163 87.3532 256.288 86.7664 256.539 86.2359C256.79 85.7057 257.158 85.2475 257.612 84.9004C258.67 84.0839 259.956 83.6693 261.264 83.7236H263.08C263.638 83.7187 264.194 83.6568 264.741 83.5383C265.333 83.4218 265.868 83.0916 266.256 82.6037C266.543 82.1624 266.74 81.6622 266.835 81.1352C266.947 80.6012 267.007 80.0559 267.012 79.5088C267.056 78.7441 266.944 77.9784 266.683 77.2639C266.543 76.9384 266.365 76.6327 266.153 76.3541C265.768 75.8833 265.228 75.5862 264.643 75.5237C264.071 75.4691 263.514 75.4445 262.977 75.4445H256.676C256.363 75.4423 256.051 75.4688 255.743 75.5237C255.424 75.5943 255.134 75.7668 254.912 76.0179C254.585 76.2883 254.368 76.6813 254.307 77.1157C254.272 77.4891 254.256 77.9093 254.256 78.3517V103.501H242.884L242.868 73.2987Z" fill="white"></path><path d="M314.198 66.1418V87.6099C314.204 88.5222 314.288 89.4323 314.449 90.3293C314.634 91.3552 315.178 92.2696 315.969 92.8927C316.546 93.3599 317.207 93.6966 317.911 93.8816C319.478 94.3415 321.132 94.3415 322.698 93.8816C323.408 93.6963 324.077 93.3599 324.66 92.8927C325.076 92.5608 325.418 92.1395 325.669 91.6567C325.897 91.2103 326.074 90.7362 326.196 90.2453C326.311 89.7917 326.376 89.3267 326.395 88.8582C326.395 88.4133 326.425 87.9931 326.425 87.6099V66.1516H337.797V88.5839C337.797 89.5431 337.754 90.5073 337.669 91.4665C337.582 92.4426 337.405 93.4079 337.142 94.3488C336.864 95.3261 336.483 96.2667 336.005 97.1523C335.485 98.1011 334.851 98.9717 334.114 99.7407C333.252 100.671 332.246 101.439 331.141 102.013C330.056 102.563 328.914 102.978 327.739 103.249C326.528 103.535 325.299 103.723 324.061 103.81C322.799 103.899 321.548 103.943 320.302 103.943C319.059 103.943 317.767 103.899 316.521 103.81C315.292 103.721 314.071 103.533 312.868 103.249C311.693 102.977 310.551 102.562 309.468 102.013C308.361 101.439 307.355 100.671 306.493 99.7407C305.756 98.9725 305.119 98.1017 304.602 97.1523C304.124 96.267 303.743 95.3263 303.468 94.3488C303.201 93.409 303.025 92.4435 302.938 91.4665C302.856 90.5073 302.812 89.5431 302.812 88.5839V66.1516L314.198 66.1418Z" fill="white"></path><path d="M63.1448 107.973C62.678 108.126 62.7759 108.22 62.2882 108.262C62.0034 108.262 61.7211 108.302 61.4388 108.309C60.5287 108.346 59.6487 108.341 58.7876 108.309C56.8879 108.183 55.0179 107.748 53.2429 107.021C52.484 106.679 51.6791 106.468 50.8577 106.393C49.7806 106.195 48.6733 106.303 47.6486 106.706C46.6237 107.11 45.718 107.793 45.0236 108.687C34.7412 105.243 27.1498 101.518 22.7741 97.5082C19.6663 95.2247 19.3485 90.4517 22.0126 87.711C25.8422 83.7712 30.5393 86.8238 34.1414 89.1028C43.3652 95.0061 52.1361 101.56 61.6605 106.991C62.3233 107.404 62.4422 107.723 63.1448 107.973Z" fill="#F2C494"></path><path fill-rule="evenodd" clip-rule="evenodd" d="M25.2148 86.815C24.3655 87.0055 23.5051 87.4582 22.6572 88.3304C20.3551 90.6986 20.647 94.8463 23.3073 96.8011L23.3463 96.8297L23.3819 96.8622C27.5337 100.667 34.7754 104.279 44.7344 107.658C45.4571 106.88 46.3381 106.273 47.3192 105.887C48.4864 105.428 49.7496 105.301 50.9804 105.519C51.8831 105.606 52.7666 105.84 53.5986 106.212C55.2769 106.898 57.0424 107.308 58.8352 107.429C59.4363 107.451 60.045 107.459 60.6657 107.449C54.8373 104.089 49.2502 100.3 43.6927 96.5301C40.3528 94.2648 37.0235 92.0066 33.6586 89.8532C33.658 89.8529 33.6594 89.8534 33.6586 89.8532L33.5838 89.8059C31.7715 88.659 29.8476 87.4418 27.9324 86.9359C26.9802 86.6843 26.0729 86.6223 25.2148 86.815ZM34.4444 88.2474C34.5045 88.2854 34.5641 88.3233 34.6234 88.3607L34.6272 88.3631C38.0816 90.5739 41.447 92.8575 44.8 95.1323C50.4815 98.9872 56.1271 102.818 62.1071 106.228L62.1373 106.245C62.4571 106.445 62.6921 106.643 62.854 106.778C62.8915 106.81 62.925 106.838 62.9546 106.862C63.101 106.981 63.2182 107.062 63.4472 107.143L65.8871 108.011L63.4265 108.819C63.3177 108.854 63.2856 108.872 63.222 108.906C63.1981 108.918 63.1698 108.934 63.1311 108.953C63.04 108.999 62.9304 109.046 62.7868 109.083C62.6549 109.117 62.5162 109.137 62.3663 109.15L62.3277 109.153H62.2888C62.1843 109.153 62.0733 109.16 61.9319 109.171C61.9178 109.172 61.9028 109.173 61.8878 109.174C61.7657 109.184 61.6183 109.195 61.4698 109.199C60.5349 109.237 59.6332 109.232 58.7544 109.199L58.7283 109.198C56.731 109.065 54.7658 108.608 52.9015 107.845L52.8732 107.833C52.2046 107.532 51.4974 107.345 50.7769 107.28L50.7358 107.276L50.6953 107.269C49.7849 107.102 48.8484 107.193 47.9788 107.535C47.109 107.877 46.3324 108.46 45.7329 109.232L45.3432 109.734L44.7377 109.531C34.4556 106.088 26.7269 102.325 22.2021 98.1953C18.6842 95.572 18.3542 90.2022 21.369 87.1007C22.4359 86.0031 23.5988 85.3602 24.8198 85.0862C26.032 84.8144 27.2421 84.9192 28.3932 85.2235C30.5817 85.8015 32.7085 87.1482 34.4444 88.2474Z" fill="#282E3D"></path><path d="M3.4601 79.0726C3.61484 79.2162 3.78666 79.3373 3.97119 79.4337C6.22955 80.3536 8.63762 80.7905 11.0563 80.719C11.2874 80.7272 11.5156 80.7774 11.7308 80.8674C14.0067 81.938 16.5147 82.3329 18.9862 82.0095C20.2108 81.7724 21.3753 81.2672 22.4051 80.5261C22.6437 80.3157 22.9234 80.1636 23.2242 80.0812C27.0367 78.9602 38.3747 79.9579 40.7433 75.221L41.7747 73.1642C41.6686 72.0647 40.895 68.2449 41.7885 67.3621C41.9928 67.1602 42.2588 67.0426 42.5379 67.0308H45.0256C45.6787 65.9098 50.069 58.6543 50.5611 57.6045C50.6332 57.6045 50.8932 59.0295 50.9229 59.1597V59.1818C51.5338 61.7587 51.9714 64.3783 52.232 67.021H73.9354C74.0682 64.8422 74.3883 62.6809 74.8923 60.5637C75.1341 59.6468 75.398 58.6685 75.8723 57.8345L77.9401 60.7441L82.0146 67.0406H84.6821C84.9569 67.0529 85.2191 67.1675 85.4217 67.3646C85.6268 67.5613 85.7579 67.8301 85.7905 68.121L85.8768 68.3238L85.9097 68.5241C85.87 68.6229 85.9097 68.5238 85.8768 68.8355L85.5408 72.3335C86.2831 73.0918 87.0714 73.9367 87.9404 74.5818C89.1487 75.4794 90.5135 75.9908 92.129 75.347C94.5568 74.3791 95.8486 71.872 96.624 68.8355C97.3894 65.8394 97.6522 62.3277 98.0077 59.2702C98.2737 56.9823 98.5919 54.9481 99.2116 53.5749C99.2643 53.4524 99.3642 53.3547 99.4836 53.3088C100.219 53.0255 101.103 53.3356 102.007 53.4341C102.727 53.5124 103.459 53.457 104.138 52.8621C105.299 51.8466 106.098 50.4819 106.742 49.0205C107.406 47.5169 107.904 45.9106 108.462 44.4774C108.786 43.6816 108.897 42.8067 108.782 41.9484C108.63 40.8757 108.187 40.3143 107.443 40.2849C107.134 40.2709 106.848 40.0488 106.742 39.741C106.383 38.6901 105.599 37.763 104.332 38.102C104.007 38.2278 103.616 38.079 103.44 37.763C102.74 36.5031 101.216 36.3137 100.079 36.3137C100.079 35.7169 100.079 34.7726 100.135 33.7321C100.199 32.5382 100.336 31.2171 100.631 30.149C100.953 28.9826 100.753 27.7682 100.21 26.7984C99.7673 26.0067 99.0957 25.3781 98.2927 25.0717C97.517 24.7755 96.7035 24.9132 96.1513 25.4276C95.8907 25.6705 95.6883 25.9972 95.5757 26.4019C95.4506 26.8514 95.4362 27.3968 95.5757 28.0305C95.7112 28.6461 95.9223 29.6479 96.0553 30.8121C96.1594 31.7217 96.2158 32.7306 96.1513 33.7321C96.1129 34.3267 96.0322 34.9189 95.8934 35.4863C95.7691 35.9944 95.5983 36.4823 95.3701 36.9345C95.0527 37.1438 94.7233 37.4282 94.4083 37.763C92.6332 39.6515 92.6773 41.6671 92.6773 44.0634V46.7099C92.6194 48.04 93.5526 48.8041 93.7223 49.9631C93.9277 51.3666 93.3856 53.237 92.5924 55.1432C91.5428 57.6653 90.0533 60.2494 89.2724 61.8963C88.1553 59.8479 87.1146 57.358 85.9355 54.8924C84.7975 52.513 83.5308 50.156 81.942 48.2406C80.6739 46.7116 79.2008 45.4636 77.4244 44.7099C76.8828 45.3626 76.3064 46.0102 75.695 46.663C74.0366 48.3364 72.2243 49.8089 70.4394 51.345C68.376 53.0225 66.0556 54.5453 64.2364 56.4722C62.9754 57.7652 62.806 60.6017 64.9344 61.1472C65.3432 61.2441 65.8105 61.1949 66.1059 60.8828C66.6518 60.3288 66.3578 59.2189 65.5271 58.5588C65.8899 58.4985 66.2612 58.5315 66.6096 58.6554C66.9578 58.7793 67.2728 58.9902 67.5279 59.2702C67.7828 59.5505 67.9705 59.8916 68.0746 60.2646C68.5759 62.0584 67.2513 64.1439 65.2469 63.7405C63.3935 63.4589 61.7112 62.4393 60.5424 60.8901C57.4596 57.0775 54.9474 52.9584 51.5436 49.3526C50.4749 48.2518 49.4679 47.0854 48.5284 45.8596L48.2578 45.5034C41.8459 48.9054 37.5853 61.7309 33.9966 67.671C31.3992 68.0864 29.1843 69.8392 24.3653 74.3188C24.2599 74.4151 24.1187 74.464 23.9798 74.4525C23.7594 74.4345 23.5709 74.2658 23.5135 74.0565C23.3433 73.356 22.9926 72.7193 22.5007 72.2175C21.5533 73.9678 20.2129 75.4436 18.5984 76.5142C16.9838 77.5848 15.145 78.2168 13.2447 78.3549C11.3444 78.4927 9.44133 78.1319 7.70409 77.3045C5.96683 76.4774 4.44904 75.2087 3.2851 73.6117L2.79968 73.6908C0.514996 74.897 0.911716 76.7339 3.4601 79.0726Z" fill="#F2C494"></path><path fill-rule="evenodd" clip-rule="evenodd" d="M95.5393 24.7798C96.3683 24.0073 97.554 23.8375 98.6151 24.2424C99.6443 24.6352 100.465 25.4232 100.993 26.3664C101.64 27.5223 101.883 28.9738 101.494 30.3803C101.225 31.3559 101.092 32.6011 101.029 33.7767C100.996 34.3916 100.983 34.9726 100.978 35.4682C102.06 35.5798 103.403 35.9662 104.163 37.2278C105.056 37.0086 105.84 37.2264 106.442 37.7094C107.002 38.1597 107.359 38.7997 107.572 39.4025C108.157 39.4489 108.665 39.7095 109.036 40.1721C109.397 40.6234 109.582 41.2077 109.669 41.8233L109.669 41.8299C109.804 42.8361 109.675 43.8632 109.295 44.8006C109.105 45.2897 108.911 45.8305 108.709 46.3938C108.359 47.371 107.985 48.4154 107.563 49.373C106.896 50.8843 106.033 52.3844 104.731 53.524C103.784 54.3525 102.753 54.4044 101.91 54.3127C101.653 54.2846 101.403 54.2423 101.181 54.2038L101.116 54.1926C100.914 54.1571 100.739 54.1266 100.568 54.105C100.295 54.0701 100.104 54.0684 99.9604 54.0922C99.4485 55.3227 99.1542 57.1574 98.8969 59.3694C98.8272 59.969 98.7606 60.5928 98.6923 61.232C98.419 63.7909 98.1198 66.5927 97.492 69.0507C96.7032 72.1382 95.3157 75.0296 92.4635 76.167C90.4453 76.9712 88.7474 76.2857 87.4046 75.2888C86.5796 74.6762 85.8251 73.8998 85.169 73.2246C85.0773 73.1302 84.9876 73.038 84.8997 72.9482L84.6122 72.6545L84.9873 68.7491L84.9881 68.7415C84.9949 68.6763 84.9968 68.6433 84.9974 68.6307V68.6266C84.9974 68.6261 84.9949 68.5906 84.9982 68.5355L84.9169 68.3447L84.9025 68.2167C84.8918 68.1226 84.8505 68.047 84.8005 67.999L84.7966 67.9951C84.7496 67.9496 84.6993 67.9294 84.6547 67.9247H81.5264L77.1983 61.2363L76.076 59.6568C75.9637 60.014 75.8628 60.3887 75.7608 60.7751C75.2704 62.8396 74.9584 64.9472 74.8289 67.0719L74.7781 67.9048H51.4217L51.3425 67.1049C51.1086 64.7316 50.7297 62.377 50.2086 60.0563C49.7367 60.8657 49.1777 61.81 48.625 62.7386C48.0345 63.7311 47.4426 64.7204 46.9487 65.5459C46.3995 66.4634 45.9716 67.1786 45.8008 67.4717L45.5427 67.9146H42.5657C42.5202 67.9193 42.4685 67.94 42.4209 67.9872C42.4231 67.985 42.4223 67.9864 42.4196 67.9919C42.4044 68.0213 42.3263 68.1728 42.2849 68.5742C42.2414 68.9961 42.2534 69.5296 42.2991 70.1106C42.3445 70.6851 42.4204 71.2723 42.493 71.7944C42.5113 71.9232 42.5295 72.0509 42.5472 72.1745C42.598 72.5317 42.6443 72.8551 42.6657 73.0775L42.69 73.3294L41.5454 75.6122C40.8167 77.0692 39.4374 78.0085 37.8821 78.6392C36.3222 79.2715 34.4758 79.638 32.6455 79.883C31.1553 80.0825 29.6315 80.2064 28.2443 80.3191C27.9261 80.345 27.6152 80.3701 27.3135 80.3958C25.6547 80.5358 24.3281 80.6788 23.4793 80.9285L23.4631 80.9331C23.2979 80.9784 23.1395 81.063 23.0007 81.1855L22.9674 81.215L22.9313 81.2409C21.7983 82.0564 20.5135 82.6147 19.1584 82.8769L19.1314 82.8821L19.104 82.8857C16.4672 83.2309 13.7933 82.8112 11.3688 81.6754C11.2651 81.6339 11.1574 81.6099 11.0491 81.6036C8.51536 81.6735 5.9946 81.2134 3.63187 80.2509L3.59295 80.2351L3.55574 80.2157C3.29987 80.0822 3.06323 79.9149 2.85142 79.719C1.55458 78.5284 0.612324 77.3055 0.433166 76.0821C0.337661 75.4299 0.462689 74.7979 0.828004 74.2319C1.18112 73.685 1.7236 73.253 2.37982 72.9064L2.50984 72.8377L3.68684 72.6458L4.0109 73.0906C5.09042 74.5719 6.49364 75.7424 8.09223 76.5035C9.6904 77.2646 11.4375 77.5951 13.1801 77.4687C14.9228 77.3424 16.6133 76.7624 18.1017 75.7754C19.5906 74.788 20.8328 73.423 21.7133 71.7963L22.2913 70.7285L23.1431 71.5976C23.6064 72.0706 23.9649 72.6365 24.2005 73.2563C26.3851 71.235 28.0553 69.7684 29.4944 68.7478C30.8979 67.7525 32.1203 67.1532 33.4322 66.8727C34.2441 65.4804 35.1006 63.7322 36.0303 61.7969C36.1611 61.5245 36.2931 61.2489 36.4266 60.9705C37.3141 59.1181 38.2621 57.1396 39.2772 55.2217C40.4449 53.0153 41.7173 50.8589 43.1173 49.0294C44.5124 47.2059 46.0734 45.6553 47.8362 44.7199L48.5118 44.3615L49.2413 45.3213C49.2411 45.3208 49.2419 45.3219 49.2413 45.3213C50.1599 46.5193 51.1448 47.6606 52.1887 48.7358L52.1974 48.7448C53.9382 50.589 55.4435 52.5563 56.887 54.5198C57.2218 54.9753 57.5529 55.4296 57.8825 55.8824C58.9825 57.3926 60.0683 58.8831 61.2409 60.3336L61.2597 60.3568C62.2946 61.7286 63.7721 62.6174 65.3835 62.8622L65.4047 62.8655L65.4259 62.8696C66.0425 62.9938 66.5411 62.7539 66.8822 62.2971C67.2263 61.8364 67.3759 61.1853 67.2344 60.5803C67.1672 60.9048 67.0176 61.2219 66.7524 61.4931C66.1513 62.1224 65.2997 62.1423 64.7271 62.0067L64.7111 62.0029C63.1805 61.6107 62.5084 60.3628 62.423 59.1492C62.3409 57.982 62.7723 56.7005 63.5891 55.8597C64.8979 54.474 66.4932 53.2601 68.005 52.1099C68.6491 51.6198 69.278 51.1411 69.8633 50.6657C70.24 50.3412 70.6151 50.0225 70.9872 49.7059C72.397 48.5066 73.767 47.341 75.049 46.0486C75.6471 45.4095 76.2085 44.7785 76.734 44.1449L77.1602 43.6313L77.7771 43.893C79.7208 44.7177 81.3031 46.071 82.6337 47.6756C84.2948 49.6786 85.5996 52.1167 86.7444 54.5108C87.1726 55.4059 87.5749 56.2863 87.9649 57.1402C88.4074 58.1089 88.8342 59.0431 89.2653 59.9259C89.3488 59.7649 89.4345 59.6006 89.5216 59.4336C89.6894 59.1116 89.8624 58.7797 90.0359 58.4427C90.6343 57.2807 91.2558 56.03 91.7664 54.8031C92.5587 52.8991 93.0051 51.2298 92.8381 50.088C92.7872 49.7403 92.6438 49.4535 92.4268 49.0191C92.3903 48.9462 92.352 48.8692 92.3115 48.7871C92.0509 48.2577 91.7503 47.5743 91.7838 46.6899V44.0611C91.7838 43.979 91.7835 43.8965 91.7835 43.8144C91.7808 41.5474 91.7783 39.2592 93.7547 37.1568C94.0422 36.8512 94.3496 36.5728 94.6634 36.3422C94.8128 36.012 94.9322 35.6545 95.0249 35.2752C95.1492 34.7674 95.2238 34.2276 95.2594 33.6733C95.3195 32.7389 95.2676 31.7849 95.1675 30.9094C95.0396 29.7903 94.8362 28.8234 94.7026 28.217C94.5381 27.4688 94.5443 26.7751 94.7143 26.1641C94.868 25.6119 95.1522 25.1404 95.5393 24.7798ZM97.9723 25.8963C97.4814 25.709 97.0396 25.8146 96.7646 26.0709C96.6305 26.1959 96.5103 26.3779 96.4385 26.6351C96.3585 26.923 96.3362 27.3206 96.4502 27.8394C96.5878 28.4643 96.8065 29.5007 96.9447 30.7102C97.0527 31.6539 97.1133 32.7174 97.0445 33.7863C97.0037 34.4216 96.9167 35.0659 96.7633 35.6927C96.6259 36.2541 96.4342 36.807 96.1709 37.3285L96.0645 37.5394L95.8662 37.6699C95.6182 37.8336 95.3413 38.0697 95.0636 38.3649C93.5722 39.9513 93.5722 41.5922 93.5724 44.0092V46.7458C93.5534 47.1814 93.687 47.5386 93.919 48.0099C93.9475 48.0677 93.9788 48.1291 94.0117 48.1944C94.2253 48.6152 94.5127 49.1814 94.6082 49.8337C94.8517 51.4989 94.2141 53.5704 93.4201 55.4788C92.881 56.7739 92.2328 58.0762 91.629 59.2486C91.4435 59.6088 91.2634 59.954 91.0921 60.2828C90.6977 61.0396 90.349 61.709 90.0827 62.2709L89.329 63.8599L88.4863 62.3153C87.7457 60.9571 87.027 59.3853 86.2962 57.7864C85.9118 56.9459 85.524 56.098 85.1279 55.2697C83.997 52.9048 82.7681 50.6291 81.2519 48.801C80.1977 47.5299 79.0221 46.4967 77.6675 45.8008C77.2467 46.2898 76.8077 46.7761 76.351 47.2635L76.3342 47.2815C74.991 48.637 73.5429 49.868 72.1228 51.0759C71.7548 51.3889 71.3887 51.7003 71.0266 52.0119L71.0079 52.0283C70.3211 52.5863 69.6321 53.1098 68.9554 53.6242C67.4988 54.7316 66.0975 55.7967 64.8903 57.0755L64.8805 57.0861C64.685 57.2862 64.5209 57.5509 64.4029 57.845L65.3799 57.6827C65.8945 57.597 66.4209 57.6442 66.9124 57.8191C67.4036 57.9938 67.8418 58.289 68.1927 58.6744C68.5433 59.0594 68.7971 59.5236 68.9374 60.026C69.2633 61.1918 68.9986 62.4422 68.32 63.3513C67.6266 64.2797 66.4696 64.8795 65.0916 64.611C63.0092 64.2889 61.1343 63.145 59.836 61.4304C58.6357 59.9453 57.5172 58.4097 56.4151 56.8965C56.0898 56.4495 55.7655 56.0044 55.4413 55.5634C54.0084 53.6143 52.5568 51.7205 50.8954 49.96C49.8841 48.9184 48.9277 47.8194 48.0296 46.6683C46.8222 47.4592 45.6618 48.6373 44.5425 50.1003C43.2282 51.8176 42.0086 53.8769 40.8613 56.0448C39.8639 57.9291 38.9325 59.8727 38.0439 61.7275C37.9101 62.0067 37.7774 62.2837 37.6454 62.5585C36.6442 64.6432 35.6873 66.5968 34.7647 68.1239L34.5509 68.4779L34.1396 68.5437C33.0187 68.7229 31.9435 69.1904 30.5354 70.1892C29.1093 71.2003 27.391 72.7195 24.978 74.9627L24.9723 74.9679C24.6889 75.2269 24.3028 75.3663 23.9061 75.3333C23.2801 75.2817 22.7988 74.8252 22.6512 74.2865L22.6445 74.2619C22.6125 74.1304 22.5728 74.0018 22.5253 73.8774C21.5988 75.2135 20.4371 76.3594 19.0965 77.2485C17.3558 78.4026 15.3686 79.087 13.3107 79.2362C11.2527 79.3855 9.19375 78.9945 7.31742 78.101C5.62843 77.2965 4.13684 76.1089 2.94523 74.6298C2.63024 74.8295 2.442 75.0208 2.33477 75.187C2.21154 75.3778 2.16665 75.5773 2.20329 75.8275C2.28833 76.4082 2.81788 77.2725 4.06854 78.4203L4.07188 78.4233C4.15958 78.5046 4.25483 78.5734 4.35523 78.6291C6.48597 79.4903 8.75387 79.8983 11.0304 79.8309L11.0599 79.8301L11.0894 79.8312C11.4299 79.8434 11.7647 79.9174 12.0789 80.0484L12.1154 80.0637C14.2288 81.0581 16.5525 81.4265 18.8422 81.1323C19.9141 80.9208 20.9372 80.4787 21.8482 79.8298C22.1764 79.5495 22.5611 79.3427 22.9781 79.2272C24.0352 78.9178 25.5522 78.7658 27.1616 78.6299C27.4748 78.6034 27.7936 78.5775 28.1167 78.551C29.5018 78.4386 30.967 78.3193 32.4062 78.1267C34.1832 77.8887 35.8538 77.5465 37.2048 76.9988C38.5607 76.4489 39.4869 75.7369 39.9428 74.8252L40.8567 73.0025C40.8376 72.8543 40.8121 72.6764 40.7827 72.4698C40.7636 72.3372 40.743 72.1928 40.7212 72.037C40.6472 71.5059 40.5656 70.8769 40.5159 70.2487C40.4669 69.6268 40.4462 68.9713 40.5055 68.3944C40.5594 67.8712 40.6973 67.1874 41.1578 66.7324C41.5146 66.3799 41.9898 66.1648 42.5004 66.1433L42.5385 66.1416L44.5137 66.1424C44.7362 65.7678 45.0534 65.2381 45.4225 64.621C45.9167 63.7953 46.5042 62.8134 47.0841 61.8386C48.3427 59.7237 49.5289 57.7026 49.7508 57.2291L49.991 56.7161H50.5619C50.9351 56.7161 51.1587 56.9349 51.2152 56.9936C51.2939 57.0749 51.3398 57.1533 51.3591 57.1876C51.4013 57.263 51.4274 57.3331 51.4397 57.3669C51.4677 57.4453 51.4919 57.5331 51.5112 57.6076C51.5514 57.764 51.595 57.9627 51.6344 58.1515C51.6744 58.3436 51.713 58.5385 51.7427 58.691L51.7805 58.884L51.7924 58.9445C51.7952 58.9582 51.7962 58.9634 51.7962 58.9634L51.818 59.0586V59.0772C52.3644 61.3998 52.7719 63.7562 53.0385 66.1326H73.1031C73.2638 64.1855 73.5712 62.2545 74.0225 60.3581L74.0274 60.3371C74.2648 59.4379 74.5534 58.3472 75.0941 57.397L75.7891 56.1749L78.6943 60.2632L82.5042 66.1523H84.7227C85.2245 66.1744 85.6923 66.3842 86.0468 66.7275C86.3702 67.0386 86.5807 67.4436 86.659 67.877L86.7433 68.0748L86.8326 68.6217L86.7822 68.747C86.7793 68.7964 86.7746 68.8534 86.7676 68.9211C86.7676 68.9224 86.7673 68.9235 86.7673 68.9249L86.4708 72.0089C87.1356 72.6917 87.7797 73.3523 88.4773 73.8706C89.5518 74.6682 90.5837 75.0058 91.7958 74.5225C93.7993 73.724 94.9953 71.6012 95.758 68.6157C96.3509 66.2936 96.633 63.6591 96.9058 61.1113C96.976 60.455 97.0459 59.8044 97.1199 59.1667C97.3834 56.9019 97.7101 54.7346 98.3931 53.217C98.5362 52.8906 98.8071 52.6164 99.1601 52.4805C99.7403 52.257 100.328 52.287 100.797 52.347C101.011 52.3743 101.227 52.4122 101.423 52.4464L101.49 52.4581C101.712 52.4966 101.911 52.5299 102.106 52.5509C102.702 52.6158 103.135 52.5566 103.547 52.1956C104.566 51.304 105.301 50.0746 105.924 48.6635C106.328 47.7457 106.654 46.8326 106.983 45.9108C107.19 45.3303 107.399 44.7466 107.629 44.1561L107.633 44.1438C107.899 43.4918 107.991 42.7722 107.897 42.0651C107.832 41.6105 107.719 41.3788 107.635 41.2743C107.579 41.205 107.528 41.1728 107.407 41.1679H107.403C106.697 41.1362 106.11 40.6488 105.896 40.0228C105.748 39.5897 105.538 39.2649 105.316 39.0865C105.138 38.9443 104.928 38.8668 104.598 38.947C103.844 39.2044 103.025 38.8501 102.658 38.1881C102.228 37.415 101.226 37.1975 100.08 37.1975H99.1857V36.3073C99.1857 35.7099 99.1857 34.7466 99.2428 33.6829C99.3076 32.4704 99.4487 31.074 99.7691 29.9131C100.025 28.9869 99.8673 28.0094 99.4289 27.2258C99.0707 26.5856 98.549 26.1164 97.9723 25.8963ZM64.2111 58.6463C64.2 58.7737 64.1986 58.9009 64.2073 59.0261C64.2538 59.6874 64.5582 60.1295 65.1504 60.2847C65.2494 60.3071 65.3353 60.3071 65.3938 60.2959C65.4215 60.2905 65.4379 60.2839 65.4455 60.2798C65.452 60.2765 65.4536 60.2749 65.4539 60.2744L65.4667 60.261C65.4678 60.2599 65.4689 60.2588 65.4705 60.2561C65.471 60.2553 65.4716 60.2542 65.4721 60.2531C65.4749 60.2476 65.48 60.2353 65.4841 60.2138C65.4928 60.1682 65.495 60.0877 65.4661 59.9747C65.4074 59.7436 65.2407 59.4641 64.9684 59.248L64.2111 58.6463Z" fill="#282E3D"></path><path d="M83.2793 95.9168C87.3865 93.1006 93.9123 87.6137 100.014 85.8702C97.8136 86.0631 88.8289 86.8021 85.0342 87.6006L83.8932 89.566L83.2793 95.9168Z" fill="#F2C494"></path><path fill-rule="evenodd" clip-rule="evenodd" d="M99.348 85.0382C99.5735 85.0188 99.7672 85.0022 99.9244 84.9883L100.251 86.7225C97.3377 87.5548 94.2747 89.2986 91.3874 91.2269C89.9499 92.187 88.5708 93.1819 87.2878 94.1185C87.0737 94.2746 86.8621 94.4296 86.653 94.5824C85.6156 95.3414 84.6434 96.0523 83.7771 96.6464L82.1943 97.7317L83.0101 89.2913L84.4468 86.8169L84.8374 86.7348C88.4193 85.981 96.4713 85.2863 99.348 85.0382ZM85.5968 88.3904L84.7536 89.8425L84.3456 94.0645C84.7419 93.7774 85.1551 93.4753 85.5837 93.1618C85.7943 93.0076 86.0089 92.8509 86.227 92.6915C87.5133 91.7525 88.9174 90.739 90.3875 89.7574C91.6969 88.8827 93.0711 88.0253 94.4751 87.2628C91.3618 87.5685 87.7837 87.9699 85.5968 88.3904Z" fill="#282E3D"></path><path d="M49.0869 99.2476C49.7498 99.6853 50.429 100.133 51.1266 100.583L51.6448 100.919L51.7335 100.976L52.6482 101.561L53.1966 101.908C55.9691 103.661 59.0565 105.512 62.6317 107.512C62.8985 107.666 63.1781 107.794 63.4673 107.893C63.5317 107.925 63.5989 107.952 63.668 107.972C64.3785 107.72 65.0672 107.403 65.7262 107.025L66.725 106.451C67.0634 106.261 67.3925 106.066 67.7192 105.873L68.69 105.302C69.8079 104.632 70.8978 103.977 71.9572 103.324C72.0715 103.258 72.1906 103.188 72.291 103.116C73.4578 102.397 74.5896 101.68 75.6817 100.973L75.7728 100.914L76.3304 100.553C76.5638 100.407 76.7972 100.254 77.0306 100.106C77.4693 99.8188 77.9026 99.532 78.3305 99.2451L49.0869 99.2476Z" fill="#282E3D"></path><path fill-rule="evenodd" clip-rule="evenodd" d="M81.2519 98.3577L78.8341 99.9781C78.4035 100.267 77.9672 100.556 77.5257 100.844L77.5162 100.85C77.4333 100.903 77.3435 100.961 77.251 101.02C77.1074 101.113 76.9573 101.209 76.8164 101.298L76.2667 101.653L76.1758 101.712C75.0856 102.418 73.9538 103.135 72.7891 103.854C72.6632 103.941 72.5275 104.02 72.4304 104.077L72.4227 104.081C71.3611 104.735 70.2701 105.391 69.1555 106.059L69.1492 106.063L68.1796 106.633C68.1494 106.651 68.1194 106.669 68.0892 106.686C67.7941 106.861 67.4876 107.042 67.1726 107.219L66.1774 107.791C65.4721 108.195 64.7339 108.535 63.972 108.805L63.6978 108.902L63.4185 108.821C63.3175 108.792 63.2194 108.755 63.1247 108.711C62.801 108.596 62.4882 108.452 62.1896 108.28C58.6024 106.273 55.503 104.414 52.7185 102.654L52.1653 102.305L51.1572 101.659L50.6402 101.323C49.9384 100.871 49.2562 100.421 48.5936 99.9839L46.1348 98.3607L81.2519 98.3577ZM52.0695 100.132L52.1351 100.175L52.2213 100.23L53.1339 100.815L53.6798 101.159C56.4387 102.903 59.5128 104.747 63.0741 106.739L63.0847 106.745C63.2746 106.855 63.472 106.948 63.675 107.023C64.2266 106.81 64.763 106.554 65.2803 106.257L66.2862 105.68C66.5848 105.512 66.8764 105.339 67.1751 105.163C67.2047 105.146 67.2343 105.128 67.264 105.11L68.2329 104.541C69.3494 103.872 70.4342 103.219 71.4876 102.571L71.5058 102.559C71.6296 102.487 71.7104 102.44 71.7705 102.397L71.7952 102.379L71.8211 102.363C72.9814 101.648 74.1072 100.935 75.1936 100.231C75.1933 100.231 75.1942 100.231 75.1936 100.231L75.2839 100.172L75.3487 100.13L52.0695 100.132Z" fill="#282E3D"></path><path d="M25.4785 85.922C25.6699 85.8825 25.8706 85.8554 26.0573 85.8306C30.2002 85.9098 34.6751 89.5619 38.0688 91.8158L39.3826 92.6882C40.8925 93.6968 42.3956 94.7229 43.9402 95.7785L43.3312 89.4697L42.9393 86.8886H43.0184C37.5368 86.0754 29.8776 84.911 25.4785 85.922Z" fill="#F2C494"></path><path fill-rule="evenodd" clip-rule="evenodd" d="M42.8646 85.9706C42.957 85.9842 43.0493 85.9979 43.1406 86.0115L43.0765 86.8659L43.8133 86.756L44.2091 89.3605L45.0033 97.5875L43.4224 96.5074C41.8775 95.4515 40.3785 94.4284 38.8732 93.4228C38.873 93.4228 38.8735 93.4231 38.8732 93.4228L37.5606 92.5509C36.979 92.1648 36.3839 91.7511 35.7746 91.3272C34.5384 90.4679 33.2428 89.5671 31.8793 88.7702C29.8779 87.6003 27.9119 86.771 26.096 86.7175C25.9339 86.7393 25.7866 86.7606 25.6508 86.7887L25.2661 85.058C27.6116 84.519 30.7459 84.5701 33.9081 84.8375C36.9853 85.0976 40.1848 85.5727 42.8646 85.9706ZM31.3277 86.4479C31.8241 86.697 32.3121 86.9653 32.7881 87.2436C34.2103 88.0749 35.6155 89.0513 36.8833 89.9322C37.4752 90.3435 38.0368 90.7337 38.5564 91.0789L39.8704 91.9514C40.8643 92.6153 41.8568 93.288 42.857 93.9694L42.4329 89.5772L42.141 87.6552C39.5579 87.2726 36.5988 86.8438 33.7561 86.6034C32.926 86.5333 32.1127 86.4798 31.3277 86.4479Z" fill="#282E3D"></path><path d="M82.5768 110.549C82.3469 111.802 81.7899 112.962 80.969 113.897C80.1481 114.831 79.0962 115.503 77.9329 115.837C77.4876 115.96 77.0318 116.035 76.5724 116.062C72.4861 116.309 71.7416 115.32 66.9248 114.527C66.4066 114.435 65.842 114.353 65.2234 114.279C64.8712 114.232 64.5233 114.168 64.1803 114.089L63.6855 113.973C65.0344 113.726 68.6634 113.004 69.1323 112.863C73.6271 111.501 78.0262 110.232 82.2011 108.883C82.3994 108.883 82.6415 110.197 82.5768 110.549Z" fill="#F2C494"></path><path fill-rule="evenodd" clip-rule="evenodd" d="M81.6523 109.995C78.9984 110.84 76.2558 111.66 73.4689 112.492C72.1192 112.895 70.759 113.301 69.3935 113.715C69.2556 113.756 68.9311 113.831 68.5106 113.921C69.6304 114.148 70.5087 114.38 71.2671 114.58C71.6103 114.67 71.9291 114.754 72.2348 114.828C73.4567 115.125 74.574 115.299 76.5172 115.182C76.9113 115.159 77.3052 115.094 77.6879 114.989C78.6788 114.704 79.5829 114.129 80.2937 113.319C81.0014 112.514 81.488 111.509 81.6926 110.416C81.6926 110.411 81.6928 110.403 81.6926 110.391C81.692 110.353 81.6893 110.298 81.6825 110.229C81.6754 110.157 81.6651 110.077 81.6523 109.995ZM83.463 110.06C83.4801 110.238 83.4965 110.493 83.4562 110.712C83.1983 112.117 82.5725 113.424 81.6431 114.483C80.7131 115.542 79.5149 116.31 78.1808 116.693L78.1726 116.695C77.6664 116.835 77.148 116.921 76.6249 116.951C74.4827 117.08 73.1847 116.884 71.8089 116.55C71.4626 116.466 71.1186 116.375 70.759 116.28C69.7142 116.005 68.5362 115.695 66.7774 115.405L66.7674 115.404C66.2691 115.316 65.7213 115.236 65.1155 115.164L65.1038 115.162C64.7214 115.111 64.3458 115.042 63.9769 114.957L63.9737 114.956L59.3516 113.87L63.5224 113.106C64.1894 112.984 65.4278 112.743 66.5598 112.514C67.7218 112.28 68.6866 112.075 68.8716 112.02C70.2528 111.601 71.6215 111.192 72.9755 110.788C76.0428 109.872 79.034 108.979 81.9232 108.045L82.0584 108.001H82.2007C82.4724 108.001 82.6731 108.115 82.786 108.202C82.8975 108.287 82.9704 108.381 83.0128 108.442C83.0974 108.563 83.1529 108.692 83.1877 108.782C83.2617 108.974 83.3199 109.202 83.3632 109.41C83.4075 109.625 83.4429 109.853 83.463 110.06Z" fill="#282E3D"></path><path d="M104.805 97.3348C99.2253 102.613 91.4913 105.859 82.7587 108.707C82.5765 108.764 82.3969 108.825 82.2125 108.88C72.6904 111.951 62.0339 115.189 51.9025 115.992C50.7027 116.126 49.4907 115.922 48.3891 115.401C47.2872 114.88 46.3346 114.061 45.6272 113.025C45.1357 112.244 44.8218 111.352 44.71 110.42C44.6365 109.82 44.7524 109.212 45.0391 108.689C45.7341 107.796 46.6398 107.113 47.6644 106.71C48.6891 106.307 49.7961 106.198 50.8732 106.395C51.6947 106.47 52.4998 106.682 53.2584 107.023C55.0346 107.745 56.9043 108.175 58.8031 108.299C68.0998 108.794 75.6679 101.063 82.8286 96.1903C83.0386 96.0544 83.2464 95.9087 83.4447 95.7749C84.9896 94.7218 86.4925 93.6985 88.0023 92.6849C91.0547 90.6647 94.1411 88.6614 97.3605 86.9075C98.6791 86.1712 100.383 85.6161 101.907 85.9188C106.758 86.9148 109.769 92.6304 104.805 97.3348Z" fill="#F2C494"></path><path fill-rule="evenodd" clip-rule="evenodd" d="M101.73 86.7859C100.512 86.5453 99.0394 86.9871 97.8013 87.6786L97.7931 87.683C94.6115 89.4164 91.554 91.4001 88.5035 93.419C86.9974 94.43 85.4976 95.4515 83.9532 96.504L83.9488 96.507C83.8917 96.5458 83.8283 96.5889 83.7614 96.6347C83.6243 96.7284 83.4726 96.832 83.3284 96.9254C81.8397 97.9389 80.3334 99.0772 78.7757 100.254C78.4871 100.472 78.1966 100.692 77.9039 100.912C76.0407 102.316 74.1068 103.743 72.0972 105.005C68.0839 107.525 63.6764 109.444 58.757 109.183L58.7464 109.182C56.7502 109.052 54.7855 108.6 52.9207 107.842L52.89 107.83C52.2214 107.529 51.5142 107.342 50.7937 107.277L50.7529 107.273L50.7126 107.266C49.8022 107.099 48.8655 107.191 47.9961 107.533C47.1483 107.866 46.3892 108.428 45.7957 109.17C45.6216 109.516 45.5509 109.915 45.5996 110.312C45.6953 111.112 45.9635 111.876 46.3791 112.542C46.9993 113.445 47.8275 114.152 48.7757 114.6C49.7285 115.051 50.7724 115.225 51.8044 115.111L51.833 115.107C61.8458 114.314 72.409 111.109 81.9374 108.036L81.9589 108.029C82.0647 107.998 82.1523 107.97 82.2502 107.938C82.3198 107.915 82.3949 107.891 82.486 107.862C91.1993 105.021 98.7641 101.824 104.189 96.6937M101.73 86.7859C103.867 87.2261 105.563 88.6992 106.192 90.5219C106.804 92.2954 106.451 94.5487 104.189 96.6937M96.9273 86.1321C98.3249 85.3524 100.257 84.686 102.084 85.0487L102.09 85.0498C104.803 85.607 107.036 87.4892 107.885 89.9485C108.75 92.4578 108.125 95.4149 105.425 97.9744C99.6906 103.398 91.7895 106.694 83.0398 109.548L83.0292 109.551C82.9789 109.567 82.9171 109.587 82.8502 109.608C82.7322 109.647 82.5981 109.69 82.4806 109.725C72.972 112.792 62.2318 116.06 51.9894 116.874C50.6264 117.023 49.252 116.789 48.0057 116.2C46.7553 115.609 45.6817 114.683 44.8883 113.522L44.8692 113.493C44.307 112.599 43.9507 111.582 43.8237 110.524C43.7287 109.745 43.8783 108.952 44.2551 108.265L44.2891 108.203L44.3323 108.148C45.1222 107.132 46.1569 106.349 47.3363 105.885C48.5034 105.426 49.766 105.298 50.9968 105.516C51.8993 105.602 52.7823 105.836 53.6143 106.208C55.2958 106.89 57.0638 107.296 58.8582 107.413C63.2333 107.644 67.2567 105.946 71.1398 103.508C73.0797 102.29 74.9614 100.902 76.8216 99.5012C77.1088 99.2846 77.3961 99.0676 77.683 98.8509C79.2424 97.6723 80.7925 96.501 82.3239 95.4588L82.341 95.4474C82.4705 95.3633 82.591 95.2815 82.7186 95.1944C82.7898 95.1456 82.8633 95.0953 82.9419 95.0424C84.4858 93.9898 85.9905 92.9654 87.5025 91.9502L87.5074 91.9469C90.5595 89.927 93.6723 87.9056 96.9273 86.1321Z" fill="#282E3D"></path><path d="M68.2158 63.3279C69.0403 63.4469 69.8797 63.3656 70.6704 63.0908C71.4613 62.816 72.1827 62.3542 72.7805 61.7408C73.9716 60.5384 74.8507 59.0315 75.3335 57.3652V57.3207C75.5019 56.7449 75.8196 56.231 76.2507 55.8375C76.6609 55.4762 77.1644 55.254 77.6953 55.1995C77.3031 55.4838 76.9696 55.8498 76.715 56.2749C76.4871 56.6682 76.3674 57.1212 76.3696 57.5827V57.6247C76.2621 58.6314 75.9803 59.6086 75.5389 60.5073C75.0879 61.434 74.4506 62.2451 73.6719 62.8831C72.894 63.5452 71.9542 63.9591 70.9625 64.077C69.9925 64.1772 69.0201 63.9147 68.2134 63.3353L68.2158 63.3279Z" fill="#282E3D"></path><path d="M58.2529 63.331C57.448 63.9106 56.477 64.1731 55.5084 64.0727C54.5175 63.9545 53.5786 63.5403 52.8012 62.8788C52.0224 62.241 51.3851 61.43 50.9344 60.5029C50.4927 59.6043 50.2112 58.6271 50.1035 57.6203V57.5783C50.0842 57.357 50.0434 57.1384 49.9822 56.9258C49.9182 56.7078 49.8312 56.4979 49.7232 56.3003C49.4692 55.8757 49.1373 55.5092 48.7476 55.2224C49.278 55.2789 49.7801 55.5019 50.19 55.8626C50.62 56.2561 50.9363 56.7703 51.1023 57.3461V57.393C51.5995 59.0555 52.4897 60.5556 53.6882 61.7514C54.2866 62.3614 55.0079 62.8198 55.7978 63.0916C56.5877 63.3634 57.4254 63.442 58.2482 63.3211L58.2529 63.331Z" fill="#282E3D"></path><path fill-rule="evenodd" clip-rule="evenodd" d="M70.8286 60.548C71.3816 60.5308 71.8304 60.7857 72.1399 61.1615L73.2706 62.5342L67.1699 62.7841L69.5154 61.0665C69.8899 60.7925 70.3355 60.5633 70.8286 60.548Z" fill="#282E3D"></path><path fill-rule="evenodd" clip-rule="evenodd" d="M55.4536 60.548C55.9467 60.5633 56.3926 60.7936 56.7646 61.0706L59.069 62.7841L53.0605 62.535L54.1412 61.174C54.448 60.7874 54.9004 60.5308 55.4536 60.548Z" fill="#282E3D"></path><path d="M96.1294 41.8319C96.5363 42.4601 97.0844 42.6012 97.673 43.0389C97.9654 43.2539 98.2727 43.445 98.5926 43.6101C98.8913 43.7883 99.2204 43.9015 99.5609 43.9438C99.8876 43.979 100.319 43.9752 100.615 43.8251C100.927 43.6715 101.177 43.6054 101.456 43.3926C101.912 43.0643 102.106 42.7251 102.106 42.0494C102.011 41.7858 101.825 41.5704 101.585 41.446L100.615 40.9518L98.6544 39.9825C97.3406 39.3349 96.0244 38.6625 94.7338 37.8591L94.1177 37.4735L94.9252 36.1532L95.5109 36.5885C96.6543 37.4486 97.8865 38.2226 99.1374 38.9766L101.021 40.1113L101.973 40.6923C102.37 40.9458 102.661 41.3508 102.785 41.8242C102.84 42.0581 102.848 42.3021 102.808 42.5395C102.768 42.7769 102.681 43.0023 102.552 43.2013C102.318 43.5511 102.014 43.842 101.663 44.0543C101.339 44.2593 100.999 44.4348 100.647 44.5783C100.27 44.7221 99.8642 44.7603 99.469 44.6896C99.0958 44.6083 98.7411 44.4522 98.4234 44.2298C98.106 44.0325 97.8055 43.8068 97.525 43.5549C96.9674 43.0722 96.495 42.4887 96.1294 41.8319Z" fill="#282E3D"></path><path d="M96.8359 49.7205C97.1977 49.5426 97.5573 49.3595 97.8978 49.1619C98.2234 48.9826 98.5172 48.7452 98.7661 48.4597C99.146 47.8441 99.8007 46.3557 99.7586 45.6213L99.7915 44.8624L100.929 45.9529L100.696 46.6725C100.555 47.1125 100.38 47.5393 100.171 47.9481C99.9476 48.3855 99.6275 48.7588 99.2374 49.0358C98.8664 49.2678 98.4595 49.4285 98.0357 49.5104C97.6247 49.592 97.2282 49.6515 96.8359 49.7205Z" fill="#282E3D"></path><path fill-rule="evenodd" clip-rule="evenodd" d="M107.098 38.9446L107.088 39.8307C107.07 41.4874 106.647 43.1142 105.858 44.5531C105.07 45.9891 104.046 47.09 102.681 47.9392C101.116 48.801 99.5314 47.3419 99.5564 46.1122C99.563 45.7937 99.5972 45.4343 99.6345 45.0572V44.5714L101.204 44.1754L101.116 45.0572C101.078 45.4466 101.052 45.737 101.047 45.9752C101.032 46.6752 101.691 46.8228 102.196 46.4912C103.225 45.8158 104.152 44.4958 104.574 43.7265C105.222 42.5457 105.572 41.2033 105.588 39.8307L105.598 38.9446H107.098Z" fill="#282E3D"></path><path fill-rule="evenodd" clip-rule="evenodd" d="M104.441 37.4966V38.3821C104.441 38.3821 104.441 38.3865 104.441 38.3966L104.443 38.4438L104.452 38.5955C104.459 38.7151 104.468 38.869 104.474 39.03C104.484 39.307 104.495 39.7548 104.416 40.0787C104.283 40.6245 103.877 41.3608 103.306 41.9129L102.666 42.5318L101.616 40.9951L102.256 40.3762C102.421 40.2168 102.567 40.0228 102.681 39.8304C103.103 39.1157 102.852 38.0162 102.852 37.2283L104.441 37.4966Z" fill="#282E3D"></path><path fill-rule="evenodd" clip-rule="evenodd" d="M100.902 36.0484L99.1878 39.8323L97.6025 39.3946L98.0165 38.6092C98.4952 37.7016 98.8611 36.7418 99.2351 35.7888L100.902 36.0484Z" fill="#282E3D"></path><path fill-rule="evenodd" clip-rule="evenodd" d="M103.52 47.1834C103.465 47.6692 103.173 48.4519 103.52 48.8361C104.074 49.4479 105.053 49.0241 105.598 48.5184L106.251 47.9129L107.359 48.8361L106.706 49.4414C105.902 50.1864 104.847 50.4983 103.909 50.3054C102.923 50.1023 102.122 49.3344 102.062 48.156L102.123 47.6304L103.52 47.1834Z" fill="#282E3D"></path><path d="M34.0692 66.9299C34.9592 67.154 35.7929 67.5799 36.5126 68.1784C37.1822 68.7376 37.7823 69.3846 38.2977 70.1042C37.6373 69.589 36.9192 69.1622 36.1601 68.8336C35.4569 68.5225 34.6972 68.3806 33.9362 68.4183L33.2148 68.4775L33.3691 66.7471L34.0692 66.9299Z" fill="#282E3D"></path><path d="M90.5139 61.5486C89.9865 62.5646 89.5141 63.2697 89.031 64.1845C88.5009 65.0809 88.2163 66.1158 88.2095 67.1735C88.0771 66.64 88.0314 66.0866 88.0741 65.5367C88.1209 64.9811 88.221 64.432 88.3728 63.8977C88.66 62.8298 89.0729 61.8187 89.3296 60.8423L89.5187 60.1006H90.9812L90.5139 61.5486Z" fill="#282E3D"></path><path d="M42.1272 67.9166H85.1234C85.5934 67.9168 85.9418 68.3718 85.891 68.8188L83.2702 95.9159L83.1024 96.0371C81.5186 97.1183 79.9276 98.1875 78.3299 99.2483H49.0956C47.3752 98.1056 45.6847 96.9169 43.9592 95.7825L41.3548 68.8016C41.311 68.3494 41.6624 67.9166 42.1272 67.9166ZM63.6207 86.4898C65.1795 86.4912 66.3037 85.3816 66.3037 83.6048C66.3037 82.6437 65.4814 80.6371 63.6207 80.6371C61.7599 80.6371 60.9061 82.3738 60.9042 83.6048C60.9018 85.0937 62.0618 86.4882 63.6207 86.4898Z" fill="#F7F7F7"></path><path fill-rule="evenodd" clip-rule="evenodd" d="M42.2573 68.8075L44.8128 95.2833C45.6198 95.8187 46.4429 96.3798 47.2602 96.937C47.9734 97.4231 48.6823 97.9064 49.3721 98.3667H78.0615C79.5216 97.3963 80.9755 96.4191 82.423 95.432L84.9981 68.8075H42.2573ZM42.1311 67.035C41.0763 67.035 40.3805 67.9814 40.4684 68.8904L43.1133 96.2919L43.4686 96.5255C44.4116 97.1455 45.3095 97.7579 46.2144 98.3755C46.9937 98.9071 47.7784 99.4425 48.6017 99.9891L48.8275 100.139H78.6058L78.8316 99.9891C80.432 98.9264 82.0262 97.8553 83.6136 96.7714L84.126 96.4024L86.7846 68.9139C86.8806 68.0248 86.2066 67.0359 85.1278 67.035H42.1311ZM60.8545 81.1312C61.4445 80.3534 62.3739 79.7555 63.6246 79.7555C64.9275 79.7555 65.8436 80.4721 66.3971 81.2578C66.9329 82.0184 67.2016 82.9353 67.2016 83.6094C67.2016 84.6846 66.8587 85.6367 66.2007 86.3271C65.5397 87.0205 64.6253 87.3813 63.6238 87.3805C61.4842 87.3786 60.0108 85.4962 60.0138 83.608C60.0151 82.815 60.2836 81.8833 60.8545 81.1312ZM62.2839 82.1966C61.9621 82.6207 61.803 83.173 61.8025 83.6107C61.8005 84.7004 62.6473 85.6072 63.6254 85.6083C64.1825 85.6086 64.6095 85.4154 64.9003 85.1103C65.194 84.8022 65.413 84.311 65.413 83.6094C65.413 83.3223 65.271 82.7555 64.9305 82.2724C64.6076 81.8142 64.1824 81.5277 63.6246 81.5277C63.0142 81.5277 62.5864 81.7981 62.2839 82.1966Z" fill="#282E3D"></path><path d="M49.0869 99.2509C49.7498 99.6883 50.429 100.136 51.1266 100.586C51.2947 100.702 51.4675 100.813 51.6448 100.925H75.7821L76.3375 100.561C76.5709 100.415 76.8043 100.262 77.0376 100.111C77.4764 99.8245 77.9129 99.5377 78.34 99.2509H49.0869Z" stroke="#282E3D" stroke-width="3.09358" stroke-miterlimit="10"></path><path d="M49.0869 99.2509C49.7498 99.6883 50.429 100.136 51.1266 100.586L51.6448 100.922L51.7335 100.979H75.6749L75.7658 100.922L77.0121 100.111C77.4508 99.8245 77.8871 99.5377 78.3141 99.2509H49.0869Z" fill="#F7F7F7"></path><path fill-rule="evenodd" clip-rule="evenodd" d="M47.6011 98.7991H79.8108L78.5849 99.6221C78.1554 99.9106 77.7172 100.198 77.2779 100.486L76.024 101.302L75.8219 101.428H51.615L51.4137 101.299L50.8945 100.962C50.1946 100.51 49.5135 100.061 48.8506 99.624L47.6011 98.7991ZM50.6094 99.6996C50.8673 99.8683 51.1276 100.037 51.3903 100.207L51.8837 100.527H75.5583L76.7774 99.7337C76.7774 99.734 76.7777 99.7337 76.7774 99.7337C76.7948 99.7226 76.8125 99.7108 76.8297 99.6996H50.6094Z" fill="#282E3D"></path><path d="M60.9023 83.6115C60.8996 85.298 62.4242 86.8052 64.1498 86.445C65.2059 86.2245 66.0796 85.3018 66.2915 84.1838C66.5034 83.0657 66.0331 81.8573 65.1393 81.2223C64.6921 80.9047 64.1663 80.7347 63.6283 80.7336C62.0869 80.7295 60.9037 82.1226 60.9023 83.6115Z" fill="#282E3D"></path><path fill-rule="evenodd" clip-rule="evenodd" d="M42.5506 66.1477H84.7397L84.7637 66.149C85.2639 66.1755 85.729 66.3862 86.0818 66.7295C86.4299 67.0682 86.6481 67.5149 86.712 67.9892L86.7876 68.4736L85.0487 68.869C85.0403 68.8417 85.0302 68.8152 85.0185 68.7904H41.6054V68.5481L40.5044 68.5088C40.4987 68.3808 40.5098 68.2522 40.5378 68.127L40.5487 68.0337C40.6012 67.5468 40.8172 67.0853 41.1713 66.736C41.5279 66.3843 42.0028 66.1701 42.5126 66.1485L42.5506 66.1477Z" fill="#282E3D"></path><path d="M45.0408 40.0964C45.8587 41.8279 46.83 43.4735 47.9414 45.011C50.8975 49.0517 54.7814 52.3139 57.5748 56.4767V56.5015C59.5286 59.4651 61.3845 63.1462 65.2901 63.7422C65.6497 63.8118 66.0188 63.8017 66.3743 63.7122C66.7298 63.623 67.0638 63.4565 67.3554 63.2232C68.0866 62.5319 68.3839 61.2196 68.117 60.2612C67.811 59.163 66.7331 58.361 65.5678 58.5583C66.3988 59.2133 66.6928 60.3283 66.1488 60.8796C66.0591 60.9759 65.9519 61.0526 65.8339 61.1044C65.5561 61.1988 65.2599 61.2133 64.9751 61.1465C62.5916 60.5406 63.1737 57.2713 64.6623 56.0861C65.1759 55.6708 65.6775 55.2555 66.1885 54.8499L66.2353 54.8128C70.2462 51.5733 74.0523 48.3392 77.5886 44.5931C79.3585 42.4987 80.8676 40.1722 82.0788 37.6711V37.6439C84.4988 32.4526 84.3377 27.9135 81.4159 25.1794C81.0027 24.8029 80.5548 24.4717 80.0788 24.1906C79.1575 23.6485 78.1682 23.2474 77.1406 22.999C76.8629 22.9298 76.576 22.863 76.2795 22.8037C76.5112 23.0125 76.7258 23.2416 76.9214 23.4885C77.417 24.0792 77.7491 24.7513 77.9645 25.4885C78.3004 26.6231 78.3004 27.8395 77.9645 28.9742C77.7823 29.5591 77.5179 30.1117 77.1803 30.6132C76.2534 31.9218 75.0965 33.0281 73.7733 33.8713C74.9869 32.5574 75.776 30.8698 76.0276 29.0509C76.0393 28.784 76.0205 28.5169 75.9716 28.2549C75.9006 27.866 75.7265 27.5069 75.4697 27.219C74.4614 25.6805 72.4464 26.8649 71.4324 27.7306C70.8781 28.2478 70.2242 28.6312 69.5162 28.8544C68.8082 29.0774 68.0626 29.135 67.3318 29.0228C66.6006 28.9107 65.901 28.6315 65.282 28.2049C64.6626 27.7781 64.1385 27.214 63.7452 26.5514H63.3532C62.9607 27.2151 62.4366 27.7803 61.817 28.2077C61.1976 28.6353 60.4978 28.9147 59.7661 29.0269C59.0344 29.1391 58.2886 29.0812 57.58 28.8574C56.8717 28.6337 56.2178 28.2492 55.6638 27.7306C54.121 26.4106 52.5483 25.973 51.6708 27.1671L51.6287 27.2239C51.3781 27.4965 51.2073 27.8398 51.1363 28.2129C51.0895 28.4233 51.0662 28.6391 51.0664 28.8555C51.2579 30.7552 52.0565 32.5284 53.33 33.8814C51.5492 32.7528 49.7742 31.0676 49.1573 29.0013C48.8904 28.0966 48.8208 27.1495 48.978 26.2172C49.1385 25.2642 49.5269 24.3306 50.1305 23.5676C50.3522 23.2631 50.6043 22.9846 50.882 22.737C50.5124 22.7346 50.1427 22.7569 49.7758 22.8037C48.6715 22.9178 47.6025 23.2784 46.6394 23.8618C46.2055 24.1256 45.8016 24.4408 45.4352 24.8012C42.4059 27.7208 41.986 33.5698 45.0408 40.0964Z" fill="#F7F7F7"></path><path fill-rule="evenodd" clip-rule="evenodd" d="M73.2814 21.3029L76.4578 21.9387C76.7706 22.0014 77.0709 22.0713 77.3571 22.1425C78.4706 22.412 79.541 22.8465 80.5365 23.4323C81.0661 23.7449 81.5646 24.1136 82.0224 24.5308L82.0314 24.5387C85.3318 27.6272 85.3762 32.5765 82.9741 37.8403V37.8764L82.8863 38.0581C81.6432 40.625 80.0939 43.0136 78.2756 45.1657L78.2598 45.1842L78.243 45.202C74.6648 48.9928 70.8212 52.2569 66.8016 55.5035L66.7964 55.5076L66.7496 55.5447C66.4227 55.804 66.1033 56.0646 65.778 56.3298C65.598 56.4767 65.416 56.6251 65.2291 56.7763L65.2237 56.7807C64.9264 57.0173 64.6598 57.404 64.4828 57.8466L65.4184 57.6883C67.1021 57.4034 68.5707 58.5591 68.98 60.0289C69.1609 60.6776 69.1427 61.4016 68.9803 62.0574C68.8182 62.7112 68.4926 63.3776 67.9742 63.868L67.9472 63.8931L67.9184 63.9163C67.5289 64.228 67.0785 64.4534 66.5954 64.5748C66.118 64.6949 65.6216 64.7099 65.1383 64.619C62.9133 64.2747 61.302 63.0502 60.0266 61.5945C59.0713 60.5043 58.2529 59.2182 57.5032 58.0398C57.272 57.6766 57.0474 57.3235 56.8273 56.9897L56.6818 56.7689V56.7504C55.3577 54.8196 53.7883 53.0734 52.1587 51.2979C52.0271 51.1546 51.8951 51.0108 51.7627 50.867C50.2079 49.1759 48.6135 47.4414 47.2187 45.5346L47.2157 45.5305C46.0719 43.9486 45.0731 42.2561 44.2318 40.4757L44.2305 40.4727C41.1144 33.8154 41.3758 27.4861 44.8093 24.1728C45.2233 23.7662 45.6805 23.4095 46.1725 23.1102C47.2445 22.4611 48.4383 22.0563 49.6735 21.9271C50.0766 21.8761 50.4826 21.8518 50.889 21.8544L53.1972 21.8694L51.4812 23.3993C51.2513 23.6042 51.0419 23.8356 50.8569 24.0898L50.8363 24.1183C50.3339 24.7531 49.9996 25.5449 49.8611 26.3668C49.7276 27.1593 49.7855 27.9711 50.0164 28.7551C50.0736 28.9456 50.1424 29.1331 50.2221 29.3178C50.2049 29.1947 50.19 29.0711 50.1775 28.9472L50.1731 28.9035V28.8599C50.1728 28.5837 50.2025 28.3084 50.2612 28.039C50.36 27.5314 50.5906 27.0568 50.9339 26.6693L50.9489 26.6491C51.2627 26.222 51.6656 25.9088 52.1435 25.7366C52.6157 25.5664 53.1077 25.5531 53.5788 25.6378C54.4974 25.803 55.4205 26.3543 56.2493 27.0637L56.2795 27.0894C56.7387 27.5189 57.2756 27.8343 57.853 28.0169C58.4302 28.1992 59.0362 28.2459 59.6306 28.1547C60.2249 28.0636 60.7972 27.836 61.3072 27.4842C61.8172 27.1321 62.2537 26.6632 62.5828 26.107L62.8418 25.6689H64.2581L64.5173 26.106C64.847 26.6614 65.2835 27.1295 65.7938 27.4809C66.3035 27.8324 66.8755 28.0595 67.4696 28.1506C68.0634 28.2418 68.6694 28.1954 69.2463 28.0136C69.8235 27.8316 70.3612 27.5178 70.8206 27.0891L70.8492 27.0624C71.4014 26.5909 72.2753 25.9864 73.211 25.7242C73.687 25.5908 74.2372 25.5297 74.7883 25.6757C75.3435 25.8227 75.8238 26.1605 76.1845 26.6855C76.5283 27.0888 76.757 27.5784 76.8525 28.0996C76.9134 28.4268 76.9368 28.7603 76.9221 29.0929L76.9202 29.1341L76.9148 29.1748C76.9096 29.2117 76.9045 29.2482 76.8988 29.2851C76.979 29.1025 77.0492 28.9145 77.1093 28.7223C77.3954 27.7522 77.3946 26.7114 77.1074 25.7416L77.1066 25.7385C76.9197 25.0993 76.6395 24.5412 76.2348 24.0586L76.2185 24.0391C76.0536 23.8308 75.8733 23.638 75.6791 23.463L73.2814 21.3029ZM48.8632 23.8732C48.2514 24.0354 47.6604 24.2863 47.1077 24.6211C46.7339 24.8485 46.3844 25.1209 46.0665 25.4338L46.0599 25.4401C43.4387 27.9667 42.8607 33.3329 45.8524 39.7255C46.6472 41.4074 47.5899 43.0046 48.6681 44.4963C50.0012 46.3184 51.5296 47.9811 53.0963 49.6856C53.2247 49.8254 53.3533 49.9651 53.482 50.1054C55.17 51.9447 56.8823 53.8457 58.3209 55.9895L58.4705 56.2125V56.2428C58.6745 56.5558 58.8741 56.8691 59.0721 57.1802C59.8057 58.3326 60.52 59.4545 61.3771 60.4323C62.4909 61.7034 63.7554 62.6149 65.4274 62.8701L65.4631 62.8755C65.6926 62.92 65.9279 62.9143 66.1556 62.857C66.3715 62.8027 66.5788 62.703 66.7646 62.5609C66.9667 62.3578 67.1446 62.0328 67.243 61.6347C67.3363 61.2578 67.342 60.882 67.2767 60.584C67.2101 60.9071 67.0616 61.2234 66.7983 61.4938C66.6297 61.6723 66.4265 61.8175 66.1985 61.9179L66.1621 61.934L66.1246 61.9466C65.688 62.0948 65.2202 62.1177 64.7708 62.0126L64.7539 62.0088C63.9445 61.803 63.3371 61.3506 62.953 60.7385C62.5799 60.1438 62.4528 59.457 62.4738 58.8088C62.5148 57.547 63.1271 56.1778 64.1003 55.4015C64.2744 55.2604 64.4504 55.1171 64.6272 54.9727C64.9596 54.7017 65.2955 54.4278 65.6309 54.162L65.6714 54.1298C65.6722 54.1289 65.673 54.1284 65.6741 54.1276C69.6687 50.9011 73.431 47.7025 76.92 44.0091C78.5919 42.0274 80.0251 39.8314 81.1855 37.4717V37.4528L81.2682 37.276C83.6218 32.2266 83.3092 28.1768 80.8074 25.8314C80.4402 25.4974 80.0433 25.2042 79.6226 24.9557C79.2641 24.7449 78.895 24.5575 78.5169 24.3942C78.6379 24.6705 78.7394 24.9544 78.8242 25.2441C79.208 26.5412 79.208 27.9304 78.8237 29.2275L78.8202 29.2392C78.6132 29.9045 78.3118 30.5349 77.9255 31.1085L77.9136 31.126C76.9219 32.526 75.6813 33.7133 74.2582 34.6204L68.4608 38.3154L73.1147 33.2767C74.1921 32.1101 74.9025 30.6067 75.1367 28.9767C75.1362 28.9898 75.1356 29.0029 75.1351 29.016L76.0286 29.0545L75.1427 28.9341C75.1405 28.9483 75.1386 28.9625 75.1367 28.9767C75.1419 28.7898 75.1275 28.6028 75.0932 28.4197L75.0927 28.4162C75.05 28.182 74.9461 27.9724 74.8008 27.8095L74.757 27.7604L74.7208 27.7053C74.5813 27.4921 74.4453 27.4193 74.3264 27.3879C74.1842 27.3502 73.9783 27.351 73.6979 27.4296C73.1261 27.5898 72.4918 28.003 72.0313 28.3938C72.0365 28.3891 72.0416 28.3842 72.0465 28.3796L71.4337 27.7345L72.0174 28.4055C72.0221 28.4017 72.0267 28.3979 72.0313 28.3938C71.385 28.9925 70.6207 29.4403 69.7884 29.7026C68.9493 29.967 68.0642 30.0355 67.196 29.9021C66.3277 29.7689 65.5011 29.4382 64.7724 28.936C64.3166 28.6219 63.9064 28.2456 63.5512 27.8193C63.7631 27.5645 63.9554 27.2916 64.1259 27.0032L63.7465 26.7828V26.5551L63.5506 26.6691L63.3542 26.5551V26.7835L62.9753 27.0042C63.1462 27.2921 63.3387 27.5647 63.5512 27.8193C63.1959 28.2467 62.7855 28.6238 62.3293 28.9385C61.6004 29.4417 60.773 29.773 59.9042 29.9062C59.0352 30.0396 58.1492 29.9706 57.3096 29.7053C56.4767 29.4422 55.7121 28.9931 55.0661 28.393C55.071 28.3971 55.0756 28.4009 55.0803 28.405L55.6648 27.7345L55.0509 28.3788C55.0561 28.3834 55.061 28.3883 55.0661 28.393C54.3584 27.7901 53.729 27.4662 53.2592 27.3816C53.0343 27.3412 52.8722 27.3598 52.7547 27.4024C52.6426 27.4425 52.5197 27.5224 52.3948 27.6924L52.323 27.7893L52.2912 27.8242C52.1557 27.9716 52.0575 28.164 52.0162 28.3804L52.0113 28.4063C51.9816 28.5409 51.9648 28.6787 51.9621 28.8173C51.9604 28.802 51.9588 28.7865 51.9574 28.7709L51.0675 28.8591L51.9618 28.8585C51.9618 28.8449 51.9618 28.831 51.9621 28.8173C52.1432 30.5128 52.8599 32.0852 53.9852 33.2805L58.8165 38.4131L52.8493 34.6314C50.991 33.4538 49.0065 31.62 48.3009 29.2564C47.9985 28.2311 47.9163 27.1466 48.0969 26.0748C48.2248 25.3166 48.4799 24.5627 48.8632 23.8732ZM64.275 58.674C64.2682 58.7379 64.2638 58.8017 64.2616 58.8656C64.2488 59.2586 64.3302 59.5768 64.4719 59.8027C64.6016 60.0093 64.8127 60.1916 65.1891 60.2896C65.2882 60.3114 65.3899 60.3103 65.4889 60.2863C65.4903 60.2849 65.4916 60.2836 65.493 60.2822L65.5104 60.2636C65.5107 60.2631 65.5123 60.262 65.5145 60.2579C65.5169 60.2527 65.5221 60.2407 65.5262 60.2189C65.5349 60.1728 65.5368 60.0917 65.5079 59.9782C65.4489 59.7462 65.2819 59.4679 65.0121 59.2553L64.275 58.674Z" fill="#282E3D"></path><path d="M63.75 26.4638C64.1422 27.1273 64.6658 27.6923 65.2849 28.1199C67.1837 29.4309 69.7588 29.2123 71.4348 27.6429C76.8664 23.0118 76.1733 31.1771 73.7778 33.7838C75.1008 32.9398 76.2577 31.8335 77.1852 30.5255C77.5233 30.0233 77.7877 29.4699 77.9693 28.884C78.3053 27.7501 78.3053 26.5345 77.9693 25.4007C75.9402 18.4581 68.0025 25.0357 63.8156 26.4416L63.75 26.4638Z" fill="#F7F7F7"></path><path fill-rule="evenodd" clip-rule="evenodd" d="M75.7635 21.5894C77.2225 22.0393 78.2694 23.2177 78.8352 25.1514C79.219 26.4478 79.2187 27.8362 78.8347 29.1325L78.8314 29.1431C78.6247 29.8098 78.3233 30.4415 77.9362 31.0163L77.9243 31.034C76.932 32.4331 75.6917 33.62 74.2694 34.5276L68.5201 38.1961L73.124 33.186C73.5995 32.6684 74.0407 31.8074 74.336 30.8203C74.6298 29.8382 74.7459 28.8415 74.6603 28.0985C74.5662 27.284 74.3029 27.1602 74.2308 27.1433C74.1508 27.1246 73.9465 27.1131 73.5587 27.2811C73.1754 27.4471 72.6728 27.7633 72.0404 28.3009C70.0627 30.1386 67.0288 30.3979 64.7807 28.8456C64.0525 28.3427 63.4411 27.6812 62.9855 26.9103L62.4336 25.9764L63.5357 25.601C64.4551 25.2923 65.594 24.7029 66.9061 24.0237C66.9708 23.9903 67.0358 23.9566 67.1014 23.9227C68.4579 23.2211 69.9626 22.4531 71.4148 21.9523C72.8468 21.4584 74.388 21.1652 75.7635 21.5894ZM65.1745 26.8598C65.9666 26.5104 66.821 26.0679 67.6729 25.6265C67.7585 25.5822 67.8437 25.538 67.9291 25.4939C69.3019 24.7838 70.6937 24.0776 72.0028 23.6262C73.3321 23.1677 74.4176 23.0305 75.232 23.2816C75.9626 23.507 76.6684 24.1093 77.1175 25.646L77.1183 25.6492C77.4056 26.6182 77.4061 27.6585 77.12 28.6279C76.9644 29.1275 76.7397 29.598 76.4544 30.0237C76.4103 30.0857 76.3657 30.1471 76.3206 30.2079C76.4682 29.41 76.5191 28.608 76.4372 27.8973C76.3249 26.9237 75.8927 25.7115 74.6423 25.4185C74.0608 25.2823 73.4466 25.3954 72.8425 25.657C72.2362 25.9195 71.5771 26.3575 70.8588 26.9701L70.843 26.9835L70.8281 26.9976C69.4528 28.2848 67.347 28.4573 65.8034 27.3917C65.5785 27.2362 65.3679 27.0581 65.1745 26.8598Z" fill="#282E3D"></path><path d="M48.9107 27.7377C48.9496 28.1353 49.0268 28.5195 49.1462 28.9119C49.319 29.4926 49.5755 30.0414 49.907 30.5387C50.8351 31.8472 51.9938 32.9527 53.319 33.7946C52.0401 32.4424 50.6988 30.0619 51.1253 28.1233C51.1952 27.7502 51.3663 27.4066 51.6176 27.1345L51.6598 27.0752C52.5373 25.8837 54.11 26.3188 55.6528 27.6413C56.2074 28.1585 56.8615 28.5416 57.5698 28.7646C58.2781 28.9875 59.0239 29.0448 59.7551 28.9324C60.4865 28.82 61.1858 28.5408 61.8051 28.1137C62.4245 27.6869 62.9489 27.1224 63.3422 26.4596C59.4803 25.1808 47.9361 17.3918 48.9107 27.7254V27.7377Z" fill="#F7F7F7"></path><path fill-rule="evenodd" clip-rule="evenodd" d="M60.8703 24.4094C62.0083 24.9476 62.9494 25.3928 63.6289 25.6178L64.6758 25.9644L64.1163 26.9073C63.6596 27.6771 63.0476 28.3378 62.3192 28.8399C61.5905 29.3423 60.7636 29.6733 59.8954 29.8068C59.0269 29.9402 58.1418 29.872 57.3024 29.6078C56.4696 29.3458 55.7044 28.8977 55.0576 28.299C54.3496 27.6945 53.7199 27.3706 53.2502 27.286C53.0255 27.2456 52.8631 27.2642 52.7453 27.3068C52.6344 27.3466 52.5131 27.4249 52.3896 27.5906L52.3197 27.6894L52.2805 27.7314C52.1459 27.8776 52.0482 28.0687 52.0077 28.284L52.0028 28.311C51.845 29.0274 52.0031 29.9066 52.4059 30.8238C52.8036 31.7298 53.3992 32.5788 53.9748 33.1871L58.8863 38.38L52.8395 34.539C51.4142 33.6338 50.1717 32.447 49.1786 31.0468L49.1639 31.026C48.7831 30.4551 48.4896 29.8264 48.2924 29.1638C48.157 28.7182 48.0683 28.278 48.0237 27.822L48.0196 27.7794V27.7647C47.7762 25.1089 48.2968 23.2431 49.6989 22.2628C51.0492 21.319 52.8735 21.46 54.5357 21.8775C56.2498 22.308 58.0923 23.1117 59.7042 23.8611C60.1122 24.0508 60.5014 24.235 60.8703 24.4094ZM50.7301 23.7111C50.1287 24.1315 49.5695 25.1529 49.8042 27.6416L49.8083 27.6828V27.6918C49.8426 28.0155 49.9068 28.3298 50.0058 28.6546L50.0074 28.6603C50.0512 28.8077 50.1012 28.9526 50.1575 29.0942C50.142 28.7108 50.1695 28.3257 50.2519 27.9461C50.3493 27.4407 50.5781 26.9678 50.9191 26.5816L50.9404 26.5515C51.2542 26.1251 51.6571 25.8125 52.135 25.6407C52.6069 25.4708 53.0987 25.4575 53.5698 25.5422C54.4886 25.7075 55.4118 26.2588 56.2411 26.9699L56.2691 26.994C56.7288 27.4225 57.2663 27.7368 57.844 27.9186C58.4212 28.1003 59.0272 28.1467 59.6212 28.0553C60.2156 27.9642 60.7878 27.7366 61.2978 27.3851C61.5233 27.2295 61.7344 27.0513 61.9283 26.8528C61.3433 26.5982 60.6883 26.2882 60.0069 25.9656C59.6577 25.8003 59.3016 25.6317 58.9445 25.4656C57.3359 24.7178 55.6294 23.9805 54.0964 23.5955C52.5117 23.1976 51.3911 23.249 50.7301 23.7111Z" fill="#282E3D"></path><path d="M79.9717 30.2389C79.8357 29.3593 79.5465 28.5144 79.119 27.747C78.9193 27.3808 78.6769 27.0427 78.3973 26.7408C78.1368 26.4535 77.8416 26.204 77.519 25.9991L78.43 24.8348C78.7615 25.2055 79.045 25.6211 79.2732 26.0709C79.4943 26.5047 79.6643 26.9654 79.7799 27.4428C80.0078 28.354 80.0729 29.3023 79.9717 30.2389Z" fill="#282E3D"></path><path d="M80.9378 25.5441C79.7119 24.6998 78.2994 24.209 76.8398 24.1202L77.1687 22.6369C77.9134 22.9484 78.619 23.356 79.2691 23.8507C79.8944 24.3306 80.4569 24.8958 80.9424 25.5318L80.9378 25.5441Z" fill="#282E3D"></path><path d="M70.5933 23.6002C71.8137 22.7153 73.2853 22.3048 74.7589 22.4383C75.5374 22.5149 76.2889 22.7805 76.9548 23.2145C77.6473 23.6755 78.2188 24.3141 78.6164 25.0711L77.3283 25.7188C77.1248 25.107 76.7777 24.5601 76.3202 24.1292C75.8339 23.6777 75.2543 23.3533 74.6281 23.1824C73.2779 22.8274 71.8532 22.9749 70.5933 23.6002Z" fill="#282E3D"></path><path d="M81.4297 37.2683C82.0586 36.076 82.5063 34.786 82.7565 33.4464C83.0018 32.0723 82.9077 30.6544 82.4831 29.3303C83.143 30.6058 83.4817 32.0393 83.4664 33.4933C83.4428 34.9757 83.1985 36.445 82.7424 37.8468L81.4297 37.2683Z" fill="#282E3D"></path><path d="M79.312 38.1454C79.3512 39.276 79.2941 40.4077 79.1415 41.5274C78.9883 42.6913 78.6734 43.8252 78.2072 44.8919L76.9902 44.1033C77.6047 43.26 78.0997 42.3265 78.4596 41.332C78.833 40.2988 79.1184 39.2324 79.312 38.1454Z" fill="#282E3D"></path><path d="M77.3711 41.3247C77.5792 42.2948 77.5928 43.3004 77.4108 44.2763C77.2049 45.2931 76.813 46.2573 76.257 47.1144L75.1826 46.1257C75.8286 45.5404 76.3615 44.8287 76.7521 44.0293C77.1315 43.1823 77.3423 42.2615 77.3711 41.3247Z" fill="#282E3D"></path><path d="M65.7686 54.1559C67.2792 53.1885 68.5783 51.8915 69.5793 50.3512C68.9537 52.2151 67.9573 53.9147 66.6574 55.3351L65.7686 54.1559Z" fill="#282E3D"></path><path d="M66.8269 52.0907C66.881 52.494 66.8497 52.9053 66.7358 53.2944C66.6191 53.691 66.4627 54.073 66.269 54.4341C65.8879 55.071 65.5517 55.7371 65.2632 56.4267L64.0264 55.685C64.5429 55.0715 65.1048 54.5028 65.7068 53.9843C65.9671 53.7341 66.2016 53.4557 66.4069 53.1536C66.6183 52.8412 66.7602 52.4818 66.8223 52.103L66.8269 52.0907Z" fill="#282E3D"></path><path d="M62.51 55.6461C62.3819 56.5475 62.538 57.4685 62.9539 58.2667C63.3015 59.0153 63.8466 59.6413 64.5236 60.0689L63.6475 61.2653C62.9501 60.5083 62.4746 59.5534 62.2788 58.5164C62.0576 57.5583 62.1373 56.5499 62.51 55.6461Z" fill="#282E3D"></path><path d="M57.5879 54.295C58.0827 55.4122 58.5916 56.5199 59.1562 57.5754C59.703 58.6127 60.371 59.573 61.1446 60.4332L60.0245 61.3725C59.3825 60.2817 58.872 59.1097 58.5051 57.8843C58.1458 56.6953 57.8588 55.5112 57.5879 54.295Z" fill="#282E3D"></path><path d="M56.9727 56.9065C56.7741 56.4713 56.6177 56.0155 56.5059 55.5467C56.3914 55.0945 56.3169 54.6592 56.2399 54.2341C56.1654 53.8127 56.056 53.399 55.9132 52.9981C55.7615 52.5964 55.5596 52.2182 55.3135 51.8733C55.654 52.1412 55.96 52.4556 56.2236 52.8077C56.4842 53.172 56.7137 53.56 56.9096 53.9672C57.236 54.7174 57.6584 55.416 58.1651 56.0437L56.9727 56.9065Z" fill="#282E3D"></path><path d="M47.4699 37.5989C47.0467 38.1954 46.7766 38.8981 46.6858 39.6382C46.6197 40.3565 46.71 41.0813 46.9493 41.757C47.1909 42.4319 47.5042 43.0753 47.8828 43.6752C48.268 44.2845 48.689 44.8675 49.143 45.4206L47.9761 46.3056C47.5891 45.6357 47.2409 44.9411 46.933 44.2264C46.6197 43.5008 46.3896 42.738 46.247 41.9546C46.1021 41.1651 46.1282 40.351 46.324 39.5741C46.5383 38.8217 46.9333 38.1414 47.4699 37.5989Z" fill="#282E3D"></path><path d="M48.5681 40.6432C48.6149 41.5691 48.7289 42.4899 48.9089 43.3973C49.089 44.2154 49.4051 44.9929 49.8422 45.6937C50.3027 46.4032 50.845 47.0486 51.4573 47.6146C52.0851 48.2204 52.7874 48.7815 53.5014 49.4367C52.5611 49.3617 51.6461 49.0789 50.8154 48.606C49.9436 48.1145 49.2011 47.4009 48.6543 46.5293C48.094 45.6418 47.7935 44.5985 47.791 43.5307C47.7937 42.5106 48.0627 41.5115 48.5681 40.6432Z" fill="#282E3D"></path><path d="M44.5913 29.3387C44.0617 31.0801 43.9108 32.9259 44.1498 34.7377C44.4039 36.5118 44.9351 38.2286 45.7217 39.8179L44.4023 40.4038C43.7807 38.5984 43.4467 36.6963 43.4141 34.7748C43.4103 32.8918 43.8096 31.0323 44.5821 29.3363L44.5913 29.3387Z" fill="#282E3D"></path><path d="M49.8901 25.3317C49.3358 25.7787 48.7543 26.1867 48.1493 26.553C47.5754 26.8867 47.0991 27.381 46.7725 27.9819C46.8201 27.617 46.9256 27.2635 47.0853 26.9362C47.2525 26.6072 47.447 26.2944 47.6663 26.0017C48.0868 25.4736 48.4765 24.9189 48.8331 24.3404L49.8901 25.3317Z" fill="#282E3D"></path><path d="M49.4937 28.1746C48.9663 28.6682 48.5784 29.3065 48.3725 30.0188C48.1813 30.8039 48.1693 31.6259 48.3374 32.417C47.9292 31.6545 47.6977 30.8004 47.6626 29.9249C47.6604 28.9823 47.9028 28.057 48.3633 27.2501L49.4937 28.1746Z" fill="#282E3D"></path><path d="M48.3857 28.7435C48.4045 28.2212 48.4902 27.7038 48.6401 27.2058C48.7913 26.7187 49.0168 26.2611 49.3075 25.8511C49.8673 25.0921 50.6039 24.5008 51.4452 24.1354C50.7791 24.6782 50.256 25.3934 49.9261 26.2121C49.6557 26.9807 49.6152 27.8187 49.8094 28.6125L48.3857 28.7435Z" fill="#282E3D"></path><path fill-rule="evenodd" clip-rule="evenodd" d="M50.7313 14.0276L50.5063 15.4921C50.345 16.5409 50.2558 17.6007 50.2387 18.6633L50.2055 20.7242L48.7188 19.2825C48.2403 18.8185 47.6528 18.5165 47.0294 18.4035L45.8584 18.1912L46.3902 17.1359C47.006 15.914 48.0502 14.9721 49.3226 14.5238L50.7313 14.0276Z" fill="#282E3D"></path><path fill-rule="evenodd" clip-rule="evenodd" d="M75.9912 14.0334L77.4029 14.5277C78.6778 14.9741 79.7247 15.9166 80.3413 17.1403L80.875 18.1992L79.6994 18.4084C79.0754 18.5195 78.4874 18.8211 78.0089 19.2861L76.5151 20.7386L76.4884 18.665C76.4746 17.604 76.3853 16.5458 76.221 15.4993L75.9912 14.0334Z" fill="#282E3D"></path><path d="M47.1902 17.5323C47.9945 17.6781 48.7423 18.066 49.3442 18.6497C49.6839 -2.46219 77.367 -1.66541 77.367 18.9538C78.0951 18.1238 79.0695 17.6018 80.1278 17.5249C82.3514 17.7975 82.6049 20.5366 82.3938 22.2888C82.2668 23.2939 81.9323 24.2569 81.4138 25.1094C75.9145 20.0563 69.553 24.5271 63.8108 26.4592H63.3721C57.8627 24.6349 50.7388 19.575 45.4655 24.7509C45.0594 23.992 44.7931 23.158 44.6813 22.2936C44.4689 20.5243 44.7654 17.4248 47.1902 17.5323Z" fill="#F2C494"></path><path fill-rule="evenodd" clip-rule="evenodd" d="M54.493 7.52803C52.0401 9.91499 50.3205 13.5903 50.2386 18.6686L50.2054 20.7294L48.7189 19.2877C48.2563 18.8391 47.6919 18.542 47.0913 18.4206C46.7304 18.4159 46.4953 18.5206 46.3196 18.6664C46.1154 18.8357 45.9318 19.1124 45.79 19.5093C45.5023 20.316 45.4726 21.3813 45.5692 22.1896C45.6179 22.5635 45.6992 22.9304 45.8118 23.2856C48.5449 21.237 51.6375 21.3379 54.5661 22.1297C56.1965 22.5707 57.819 23.2349 59.3452 23.8855C59.5807 23.9858 59.8136 24.0857 60.0437 24.1844C61.275 24.7127 62.4302 25.2082 63.5193 25.5777H63.6618C64.7291 25.2116 65.816 24.76 66.9454 24.2906C67.2498 24.1641 67.5571 24.0364 67.8683 23.9086C69.3621 23.2951 70.9215 22.69 72.4907 22.3089C75.3592 21.6121 78.3316 21.6537 81.1158 23.7141C81.3075 23.2275 81.4395 22.7139 81.5064 22.1859C81.6032 21.3804 81.5831 20.4032 81.3255 19.6365C81.0886 18.9314 80.7089 18.5258 80.1028 18.4215C79.3388 18.5017 78.6109 18.8914 78.0424 19.5398L76.473 21.3295V18.9585C76.473 9.12652 69.9368 4.17117 63.4654 4.04329C60.208 3.97891 56.9532 5.13413 54.493 7.52803ZM78.1937 17.1846C77.4386 7.54135 70.5366 2.41034 63.5011 2.2713C59.7956 2.19806 56.0659 3.51341 53.2399 6.26351C50.6901 8.74443 48.9221 12.3469 48.5294 17.035C48.1551 16.8641 47.7599 16.7394 47.3513 16.6653L47.2912 16.6545L47.2303 16.6518C46.4127 16.6155 45.7174 16.8546 45.1715 17.3073C44.6447 17.7442 44.3128 18.3328 44.1039 18.9184C43.6908 20.0756 43.6782 21.4426 43.7936 22.4031L43.7947 22.411C43.9198 23.3796 44.2184 24.3162 44.6757 25.1708L45.2398 26.2248L46.0952 25.3852C48.4105 23.1126 51.1204 23.0352 54.095 23.8396C55.5932 24.2447 57.1145 24.864 58.6382 25.5135C58.8643 25.6099 59.0908 25.7071 59.3177 25.8044C60.5969 26.3534 61.8799 26.9041 63.0887 27.3044L63.2266 27.35H63.9586L64.0986 27.303C65.2756 26.9069 66.4819 26.4054 67.6667 25.9129C67.9638 25.7894 68.2594 25.6665 68.5532 25.5459C70.0388 24.9357 71.4902 24.3767 72.9166 24.0302C75.7253 23.348 78.346 23.5035 80.806 25.7639L81.6124 26.5049L82.1801 25.5715C82.7641 24.611 83.1392 23.5293 83.2814 22.4036L83.2823 22.3984C83.3962 21.4523 83.3949 20.185 83.0228 19.0769C82.6403 17.9385 81.8058 16.8424 80.238 16.6502L80.1507 16.6394L80.0629 16.6458C79.3975 16.6941 78.7665 16.883 78.1937 17.1846Z" fill="#282E3D"></path><path d="M67.8901 31.4172C67.3665 32.1226 66.7161 32.7107 65.9765 33.1479C65.2084 33.6066 64.3467 33.8609 63.4654 33.8893C62.5812 33.8871 61.7127 33.6418 60.9451 33.1773C60.2006 32.7393 59.5557 32.1343 59.0547 31.4049C59.7513 31.8401 60.4775 32.2195 61.2274 32.5396C61.9384 32.8338 62.6951 32.9828 63.4584 32.9795C64.2246 32.9598 64.9818 32.7991 65.6964 32.5049C66.4479 32.1856 67.1804 31.8183 67.8901 31.4049V31.4172Z" fill="#282E3D"></path><path d="M66.3407 21.1096C66.6292 21.2741 66.8781 21.5069 67.068 21.7899C67.2578 22.0729 67.3835 22.3984 67.4352 22.7412C67.4727 23.1171 67.4303 23.4973 67.3114 23.8537C67.1939 24.196 67.0269 24.517 66.8167 24.8054C66.2106 25.6322 65.3946 26.259 64.4644 26.6126C64.1263 26.7475 63.7705 26.8259 63.4096 26.845C63.0326 26.8292 62.661 26.7455 62.3104 26.5977C62.0006 26.4795 61.7028 26.3288 61.4213 26.1478C60.8609 25.7923 60.3686 25.3286 59.9696 24.7807C59.5219 24.2076 59.2953 23.4765 59.335 22.7338C59.3712 22.3749 59.4985 22.0332 59.7036 21.745C59.8921 21.48 60.1306 21.2594 60.4037 21.0972L60.4622 21.1591C60.2552 21.3601 60.0893 21.6035 59.974 21.8747C59.8589 22.1458 59.7972 22.439 59.7923 22.7363C59.8388 23.3333 60.0817 23.8941 60.4785 24.3209C60.8642 24.7608 61.316 25.13 61.8157 25.4136C62.2996 25.7154 62.8425 25.8956 63.4025 25.9402C63.9566 25.8832 64.4921 25.7002 64.973 25.4037C65.4762 25.1245 65.9308 24.7566 66.3173 24.3159C66.7155 23.8912 66.9529 23.3265 66.9848 22.7288C66.9559 22.1283 66.7043 21.5642 66.2846 21.1591L66.3407 21.1096Z" fill="#282E3D"></path><path d="M65.0912 11.0276C66.8904 9.97697 69.1423 11.0276 71.5623 12.8298C69.0281 8.47143 66.041 7.54931 64.965 10.9188C64.9582 10.9418 64.9601 10.9666 64.9701 10.9882C64.9799 11.0098 64.9973 11.0266 65.0188 11.035C65.0419 11.0451 65.0678 11.0451 65.0912 11.035V11.0276Z" fill="#282E3D"></path><path fill-rule="evenodd" clip-rule="evenodd" d="M67.7568 8.80156C69.0235 9.17595 70.4339 10.5475 71.7071 12.7368L72.1456 13.4911L71.4433 12.9681C70.2383 12.0708 69.0891 11.3714 68.0264 11.0239C67.0048 10.6898 66.0794 10.6855 65.2596 11.1273V11.1475L65.1519 11.1941C65.0836 11.2236 65.0066 11.224 64.9384 11.1953C64.8731 11.1687 64.8233 11.1184 64.7953 11.0582C64.7673 10.9973 64.7624 10.9283 64.7814 10.8645L64.7825 10.861C65.0583 9.99676 65.465 9.38163 65.9807 9.03189C66.5026 8.67794 67.1138 8.61146 67.7568 8.80156ZM65.197 10.7581C66.1006 10.3137 67.0975 10.345 68.139 10.6856C69.0325 10.9779 69.9698 11.5007 70.9303 12.1607C69.8077 10.4497 68.646 9.43604 67.6543 9.1429C67.0991 8.97886 66.6036 9.04125 66.1836 9.32588C65.7952 9.58925 65.453 10.0558 65.197 10.7581Z" fill="#282E3D"></path><path d="M54.9521 12.8298C57.3675 11.0153 59.6197 9.97697 61.4189 11.0276C61.4391 11.039 61.4622 11.0419 61.4842 11.036C61.5063 11.03 61.5256 11.0156 61.5378 10.9955C61.5471 10.9709 61.5471 10.9434 61.5378 10.9188C60.4645 7.54931 57.4796 8.47143 54.9521 12.8298Z" fill="#282E3D"></path><path fill-rule="evenodd" clip-rule="evenodd" d="M61.7094 10.8578C61.4342 9.99535 61.0289 9.3813 60.5143 9.03197C59.9928 8.67794 59.3822 8.61144 58.74 8.80159C57.4752 9.17603 56.0671 10.5476 54.7976 12.737L54.3564 13.4977L55.062 12.9676C56.2643 12.0645 57.4124 11.3652 58.474 11.0193C59.5315 10.6748 60.4871 10.6854 61.3289 11.1769C61.3901 11.2115 61.4643 11.2222 61.5326 11.2037C61.6009 11.1853 61.6569 11.1415 61.6923 11.0845L61.6953 11.0863L61.7075 11.0534C61.7312 10.9905 61.7317 10.9211 61.7094 10.8578ZM55.5769 12.1551C56.6954 10.4475 57.8538 9.43566 58.8428 9.14287C59.3969 8.97886 59.8919 9.04125 60.3111 9.3258C60.6981 9.58865 61.0392 10.0539 61.2946 10.754C60.3935 10.3136 59.3999 10.3427 58.3616 10.6809C57.4695 10.9715 56.5346 11.4932 55.5769 12.1551Z" fill="#282E3D"></path><path d="M65.1514 16.6302C65.2379 19.1963 69.3521 19.9181 71.5597 17.2557C70.4192 17.6749 69.2082 17.8349 68.0055 17.7254C68.6819 17.6492 69.3168 17.342 69.8143 16.8502C68.281 17.3363 66.6378 17.2588 65.1514 16.6302Z" fill="#282E3D"></path><path fill-rule="evenodd" clip-rule="evenodd" d="M70.4767 16.4547L69.9509 16.9747C69.7058 17.217 69.4286 17.4173 69.1297 17.5701C69.9378 17.5316 70.7386 17.3695 71.507 17.0871L72.1307 16.8578L71.7083 17.3671C70.5637 18.7477 68.9211 19.2546 67.5467 19.0787C66.1763 18.9033 65.0285 18.0337 64.9814 16.6346L65.1612 16.6286L65.2317 16.4648C66.6785 17.0766 68.2773 17.152 69.7689 16.679L70.4767 16.4547ZM65.3688 16.9032C65.539 17.9132 66.4364 18.5773 67.5929 18.7254C68.6706 18.8634 69.9408 18.5421 70.9513 17.639C69.9901 17.9023 68.9918 17.9916 67.9987 17.9011L66.2577 17.7425L67.9949 17.5468C68.3469 17.5072 68.6874 17.4009 69.0011 17.2349C67.7863 17.4517 66.5362 17.3392 65.3688 16.9032Z" fill="#282E3D"></path><path d="M55.0586 17.2557C57.2754 19.9181 61.3758 19.1963 61.4669 16.6302C59.9788 17.2586 58.3343 17.3361 56.7994 16.8502C57.2993 17.3423 57.9364 17.6493 58.615 17.7254C57.4122 17.8364 56.1988 17.6763 55.0586 17.2557Z" fill="#282E3D"></path><path fill-rule="evenodd" clip-rule="evenodd" d="M61.656 16.3547L61.6462 16.6346C61.5964 18.0332 60.4516 18.903 59.0826 19.0785C57.7098 19.2544 56.0689 18.7473 54.9197 17.3672L54.6768 17.0757H55.0929L55.1231 17.0869C55.8904 17.37 56.6904 17.5323 57.4979 17.5707C57.1977 17.4178 56.9191 17.2174 56.6724 16.9748L56.1431 16.4537L56.8538 16.6787C58.3474 17.1515 59.9476 17.0762 61.396 16.4645L61.656 16.3547ZM57.6258 17.235C57.9405 17.4009 58.2821 17.507 58.6349 17.5466L60.3673 17.7407L58.6314 17.9009C57.6386 17.9925 56.6398 17.9034 55.6788 17.6394C56.6917 18.5422 57.9609 18.8631 59.0366 18.7252C60.191 18.5772 61.0864 17.9132 61.2583 16.903C60.0909 17.3384 58.8405 17.451 57.6258 17.235Z" fill="#282E3D"></path><path d="M81.2487 20.8157C81.066 20.4952 80.8288 20.2135 80.5486 19.9851C80.312 19.8134 80.0454 19.6932 79.7644 19.6315C79.6195 19.5783 79.4628 19.5712 79.3137 19.6112C79.165 19.6511 79.0303 19.7364 78.9267 19.8565C78.869 19.924 78.8233 20.0019 78.7912 20.0865C78.7529 20.1693 78.7292 20.259 78.7213 20.351C78.6971 20.4208 78.6911 20.4964 78.7042 20.5696C78.7175 20.6428 78.7491 20.7107 78.7961 20.7663C78.9006 20.8401 79.0227 20.8804 79.1484 20.8825C79.2438 20.8901 79.3382 20.9066 79.4307 20.9319C79.5392 20.9564 79.6456 20.9912 79.7481 21.0357C80.1882 21.2052 80.5598 21.5299 80.8008 21.9553C80.924 22.1776 80.9977 22.4269 81.0159 22.6841C81.0341 22.9412 80.9963 23.1994 80.9058 23.4386C80.8174 23.6563 80.6781 23.8466 80.5016 23.9919C80.3248 24.1371 80.1161 24.2326 79.8953 24.2693L79.8509 24.1901C80.0729 23.9265 80.2103 23.595 80.2429 23.2433C80.2494 22.9573 80.1675 22.6768 80.0095 22.4448C79.8512 22.1852 79.6409 21.9658 79.3934 21.8021C79.3281 21.7601 79.2604 21.723 79.1905 21.6908C79.1062 21.6454 79.0197 21.6049 78.9313 21.5697C78.6914 21.4611 78.4972 21.2633 78.3851 21.0135C78.3345 20.8821 78.3169 20.7389 78.334 20.5981C78.3571 20.4856 78.3898 20.3755 78.4319 20.2693C78.4643 20.1681 78.5043 20.0698 78.551 19.9752C78.6397 19.7747 78.7485 19.5849 78.8753 19.4091C78.9455 19.3147 79.0279 19.2314 79.1203 19.1618C79.2145 19.084 79.3173 19.0185 79.4261 18.9666C79.5395 18.9224 79.6581 18.894 79.7786 18.8824C80.1828 18.8745 80.5736 19.037 80.8652 19.3341C81.1565 19.6312 81.3246 20.0388 81.3328 20.4672C81.3347 20.5749 81.326 20.6826 81.307 20.7885L81.2487 20.8157Z" fill="#282E3D"></path><path d="M45.6686 20.7997C45.6327 20.5887 45.6362 20.3722 45.6792 20.1627C45.7221 19.9532 45.8037 19.7547 45.9193 19.5786C46.0349 19.4024 46.1821 19.2522 46.3524 19.1364C46.5229 19.0206 46.713 18.9415 46.9124 18.9036C46.9548 18.8946 46.9976 18.888 47.0408 18.8838C47.2734 18.871 47.504 18.9322 47.7034 19.0594C47.8892 19.1766 48.0483 19.3351 48.1701 19.5241C48.2825 19.6933 48.3788 19.8738 48.4574 20.0631C48.4946 20.1546 48.5297 20.251 48.5624 20.3474C48.6051 20.4527 48.632 20.5645 48.6418 20.6787C48.6461 20.8138 48.6208 20.9482 48.5673 21.071C48.5137 21.1939 48.4337 21.3016 48.3336 21.3856C48.1672 21.5191 47.9822 21.6242 47.7853 21.6972C47.5252 21.8323 47.2886 22.0128 47.0851 22.2311C46.8822 22.4247 46.7125 22.6539 46.5833 22.9086C46.5145 23.0451 46.4843 23.1999 46.4963 23.3542C46.5082 23.5085 46.5621 23.6559 46.651 23.7787L46.6067 23.8554C46.4973 23.8386 46.3926 23.7975 46.2993 23.7349C46.206 23.6723 46.1263 23.5895 46.0651 23.492C45.937 23.2777 45.8766 23.0257 45.8927 22.7725C45.927 22.3014 46.1258 21.8607 46.4503 21.5364C46.7653 21.2325 47.1526 21.0256 47.5704 20.9382C47.8038 20.8912 47.8973 20.9036 48.0254 20.8665C48.0804 20.858 48.1321 20.8343 48.1756 20.7979C48.2191 20.7614 48.2526 20.7135 48.273 20.6589C48.2917 20.5852 48.2917 20.5076 48.273 20.4339C48.2645 20.3495 48.2466 20.2665 48.2194 20.1867C48.168 20.0227 48.0719 19.8783 47.9438 19.7714C47.8261 19.6888 47.6909 19.6377 47.5503 19.6227C47.4096 19.6076 47.2676 19.6289 47.1365 19.6848C46.845 19.7682 46.5724 19.913 46.3352 20.1105C46.0978 20.308 45.9003 20.5542 45.7548 20.8344L45.6686 20.7997Z" fill="#282E3D"></path><path d="M0.869856 67.1717C0.886918 69.9269 1.86634 72.5909 3.64162 74.7113C5.41691 76.8317 7.87851 78.2775 10.6079 78.8028C13.3374 79.3279 16.1661 78.9005 18.6134 77.5928C21.0607 76.2851 22.9754 74.1781 24.032 71.6298C25.0887 69.0815 25.2221 66.2491 24.4096 63.6143C23.597 60.9795 21.8886 58.7049 19.5749 57.1772C17.2612 55.6493 14.4848 54.9627 11.7179 55.2339C5.59134 55.8343 0.83177 61.1064 0.869856 67.1717Z" fill="#933FA1"></path><path fill-rule="evenodd" clip-rule="evenodd" d="M11.6388 54.3683C14.6073 54.0774 17.5859 54.814 20.0683 56.453C22.5506 58.0923 24.3835 60.5328 25.2552 63.3594C26.127 66.1861 25.9839 69.2248 24.8502 71.9589C23.7166 74.6931 21.6624 76.9535 19.0367 78.3564C16.4111 79.7594 13.3762 80.2181 10.4479 79.6546C7.51963 79.0908 4.87865 77.5399 2.97399 75.2651C1.06934 72.9902 0.018551 70.1319 0.000244186 67.1762C-0.0406509 60.6635 5.06002 55.0129 11.6388 54.3683ZM19.0958 57.8991C16.9507 56.4825 14.3767 55.8461 11.8114 56.0974C6.137 56.6536 1.71852 61.5471 1.7538 67.1655C1.76962 69.7198 2.67768 72.1898 4.3236 74.1555C5.96953 76.1214 8.25175 77.4619 10.7823 77.9487C13.3128 78.4358 15.9355 78.0396 18.2044 76.8271C20.4734 75.6149 22.2485 73.6613 23.2282 71.2985C24.2079 68.9358 24.3315 66.31 23.5782 63.8673C22.8249 61.4243 21.241 59.3154 19.0958 57.8991Z" fill="#282E3D"></path><path d="M13.8489 60.4708V62.5257H12.5823V60.4708H13.8489ZM13.6946 71.8448V73.7185H12.428V71.8448H13.6946ZM14.5877 69.5604C14.5877 69.2957 14.5309 69.0706 14.4172 68.8847C14.309 68.6989 14.1303 68.5341 13.8814 68.3903C13.6378 68.2462 13.3076 68.107 12.8908 67.9722C12.1872 67.7402 11.5674 67.4941 11.0315 67.234C10.5011 66.9693 10.087 66.6421 9.7893 66.2518C9.4916 65.8572 9.34273 65.3581 9.34273 64.7545C9.34273 64.1787 9.50242 63.6795 9.82178 63.2571C10.1411 62.8344 10.5823 62.5094 11.1452 62.2818C11.7135 62.0498 12.3739 61.9335 13.1263 61.9335C13.7 61.9335 14.2197 62.0078 14.6852 62.1565C15.1507 62.3003 15.5512 62.514 15.8868 62.7973C16.2224 63.0759 16.4795 63.4173 16.6581 63.8212C16.8367 64.225 16.926 64.6871 16.926 65.2072H14.5958C14.5958 64.9286 14.5607 64.6824 14.4903 64.469C14.4199 64.2553 14.3171 64.0766 14.1818 63.9325C14.0519 63.7887 13.8949 63.6817 13.7109 63.6121C13.5268 63.5379 13.3238 63.5008 13.1019 63.5008C12.7717 63.5008 12.5011 63.5565 12.29 63.6678C12.0789 63.7794 11.9246 63.9303 11.8272 64.1205C11.7352 64.3064 11.6892 64.5201 11.6892 64.7613C11.6892 64.9982 11.7379 65.2047 11.8353 65.3813C11.9382 65.5579 12.1141 65.7202 12.3631 65.869C12.6121 66.0128 12.9531 66.1615 13.3861 66.3146C14.0898 66.5468 14.7068 66.7976 15.2373 67.067C15.7677 67.3361 16.1818 67.6657 16.4795 68.056C16.7772 68.4459 16.926 68.9429 16.926 69.5465C16.926 70.1455 16.7637 70.6561 16.4389 71.0788C16.1141 71.4966 15.6595 71.817 15.0749 72.04C14.4903 72.258 13.8137 72.3672 13.0451 72.3672C12.5471 72.3672 12.0519 72.3115 11.5593 72.2002C11.0667 72.0839 10.6202 71.8983 10.2196 71.6429C9.81906 71.3875 9.4997 71.0485 9.26154 70.6261C9.02338 70.1987 8.9043 69.6742 8.9043 69.0518H11.2426C11.2426 69.391 11.2941 69.6742 11.3969 69.9016C11.4997 70.1245 11.6351 70.3033 11.8029 70.4381C11.9761 70.568 12.1709 70.6608 12.3874 70.7164C12.6039 70.7724 12.8232 70.8002 13.0451 70.8002C13.3915 70.8002 13.6757 70.7467 13.8976 70.64C14.1249 70.533 14.2954 70.3868 14.4091 70.2012C14.5282 70.0107 14.5877 69.797 14.5877 69.5604Z" fill="white"></path></svg> 