<?xml version="1.0" standalone="no"?>
<!DOCTYPE svg PUBLIC "-//W3C//DTD SVG 20010904//EN"
 "http://www.w3.org/TR/2001/REC-SVG-20010904/DTD/svg10.dtd">
<svg version="1.0" xmlns="http://www.w3.org/2000/svg"
 width="400.000000pt" height="400.000000pt" viewBox="0 0 400.000000 400.000000"
 preserveAspectRatio="xMidYMid meet">

<g transform="translate(0.000000,400.000000) scale(0.100000,-0.100000)"
fill="#000000" stroke="none">
<path d="M1933 3480 c-17 -4 -186 -96 -375 -205 -922 -532 -848 -486 -878
-545 -19 -38 -20 -60 -20 -730 0 -670 1 -692 20 -730 26 -52 43 -63 345 -237
143 -83 395 -228 560 -324 165 -95 317 -179 338 -186 26 -9 49 -10 77 -4 44
10 1178 658 1224 700 58 52 56 30 56 781 0 751 2 729 -56 781 -23 20 -1094
644 -1179 686 -31 16 -77 21 -112 13z m612 -482 l575 -331 0 -667 0 -667 -352
-203 c-194 -112 -453 -262 -575 -332 l-222 -129 -68 39 c-37 21 -225 130 -418
241 -192 112 -421 244 -507 294 l-158 91 0 666 0 666 573 331 c314 183 573
332 575 332 1 1 261 -148 577 -331z"/>
<path d="M2142 2458 c-17 -17 -17 -839 0 -856 21 -21 49 -14 61 17 l11 30 27
-20 c142 -101 326 -40 389 129 27 72 27 183 -1 256 -24 65 -96 136 -157 154
-54 16 -139 15 -198 -3 -27 -8 -50 -15 -51 -15 -2 0 -3 69 -3 154 0 131 -2
155 -16 160 -25 9 -49 7 -62 -6z m304 -377 c77 -35 120 -122 111 -221 -16
-179 -168 -254 -295 -144 l-42 36 2 156 3 157 50 17 c65 22 120 22 171 -1z"/>
<path d="M1317 2164 c-11 -11 -8 -415 4 -457 14 -51 63 -104 107 -117 82 -22
168 -9 229 36 l32 24 13 -27 c16 -34 47 -42 65 -17 18 25 19 534 1 552 -15 15
-61 15 -76 0 -9 -9 -12 -70 -12 -214 l0 -202 -35 -30 c-33 -29 -89 -52 -128
-52 -33 0 -84 30 -98 58 -10 19 -15 87 -19 237 l-5 210 -35 3 c-20 2 -39 0
-43 -4z"/>
</g>
</svg>
